<?xml version="1.0" encoding="UTF-8"?>
<!DOCTYPE svg PUBLIC "-//W3C//DTD SVG 1.1//EN" "http://www.w3.org/Graphics/SVG/1.1/DTD/svg11.dtd">
<!-- Creator: CorelDRAW 2017 -->
<svg xmlns="http://www.w3.org/2000/svg" xml:space="preserve" width="139px" height="174px" version="1.1" style="shape-rendering:geometricPrecision; text-rendering:geometricPrecision; image-rendering:optimizeQuality; fill-rule:evenodd; clip-rule:evenodd"
viewBox="0 0 2608000 3281000"
 xmlns:xlink="http://www.w3.org/1999/xlink">
 <defs>
  <style type="text/css">
   <![CDATA[
    .fil0 {fill:none;fill-rule:nonzero}
    .fil1 {fill:#C8A830;fill-rule:nonzero}
   ]]>
  </style>
 </defs>
 <g id="Layer_x0020_1">
  <metadata id="CorelCorpID_0Corel-Layer"/>
  <polygon class="fil0" points="0,3281000 2608000,3281000 2608000,0 0,0 "/>
  <path class="fil1" d="M556000 1973000c23000,0 42000,19000 42000,42000 0,23000 -19000,41000 -42000,41000 -23000,0 -41000,-18000 -41000,-41000 0,-23000 18000,-42000 41000,-42000zm33000 873000l59000 0 0 18000 -183000 0 0 -18000 59000 0 0 -690000 -59000 0 0 -18000 124000 0 0 708000z"/>
  <path class="fil1" d="M1038000 2235000c18000,-76000 11000,-79000 -64000,-79000l0 -18000 162000 0 0 18000c-48000,0 -58000,10000 -73000,81000l-140000 627000 -45000 0 -151000 -708000 -52000 0 0 -18000 197000 0 0 18000 -77000 0 126000 621000 1000 0 116000 -542000z"/>
  <path class="fil1" d="M1454000 2415000c-19000,33000 -47000,46000 -112000,69000 -80000,28000 -114000,67000 -114000,163000l0 63000c0,90000 19000,140000 97000,140000 70000,0 129000,-30000 129000,-127000l0 -308000zm-133000 454000c-115000,0 -160000,-60000 -160000,-151000l0 -85000c0,-90000 77000,-134000 173000,-166000 74000,-24000 120000,-49000 120000,-104000l0 -67000c0,-93000 -11000,-145000 -101000,-145000 -89000,0 -110000,40000 -110000,130000l0 99000 -60000 0 0 -106000c0,-77000 56000,-141000 170000,-141000 119000,0 166000,46000 166000,142000l0 514000c0,43000 6000,58000 31000,58000 27000,0 35000,-17000 35000,-54000l0 -207000 19000 0 0 207000c0,46000 -14000,75000 -76000,75000 -48000,0 -69000,-26000 -73000,-61000 -23000,29000 -53000,62000 -134000,62000z"/>
  <path class="fil1" d="M1916000 2156000l-147000 0 0 595000c0,67000 17000,99000 63000,99000 52000,0 64000,-36000 64000,-91000l0 -173000 20000 0 0 186000c0,62000 -32000,96000 -97000,96000 -85000,0 -115000,-38000 -115000,-121000l0 -591000 -59000 0 0 -18000 59000 0 0 -142000 65000 0 0 142000 147000 0 0 18000z"/>
  <path class="fil1" d="M2062000 1973000c23000,0 42000,19000 42000,42000 0,23000 -19000,41000 -42000,41000 -23000,0 -41000,-18000 -41000,-41000 0,-23000 18000,-42000 41000,-42000zm33000 873000l59000 0 0 18000 -183000 0 0 -18000 59000 0 0 -690000 -59000 0 0 -18000 124000 0 0 708000z"/>
  <path class="fil1" d="M1310000 281000c-10000,0 -18000,9000 -18000,19000 0,10000 8000,18000 18000,18000 10000,0 19000,-8000 19000,-18000 0,-10000 -9000,-19000 -19000,-19000zm-169000 166000c21000,7000 40000,16000 58000,28000l0 -28000 -58000 0zm280000 0l0 28000c18000,-12000 37000,-21000 58000,-28000l-58000 0zm-308000 25000c-31000,0 -55000,25000 -55000,55000 0,31000 24000,56000 55000,56000 31000,0 56000,-25000 56000,-56000 0,-30000 -25000,-55000 -56000,-55000zm394000 0c-31000,0 -56000,25000 -56000,55000 0,31000 25000,56000 56000,56000 31000,0 55000,-25000 55000,-56000 0,-30000 -24000,-55000 -55000,-55000zm159000 -25000c67000,23000 121000,71000 152000,133000l0 -133000 -152000 0zm-864000 0l0 133000c31000,-62000 85000,-110000 152000,-133000l-152000 0zm116000 178000c-25000,0 -45000,20000 -45000,45000 0,25000 20000,45000 45000,45000l281000 0 0 -90000 -281000 0zm503000 90000l281000 0c25000,0 45000,-20000 45000,-45000 0,-25000 -20000,-45000 -45000,-45000l-281000 0 0 90000zm-552000 28000c-24000,0 -45000,20000 -45000,45000 0,24000 21000,45000 45000,45000l330000 0 0 -90000 -330000 0zm552000 90000l330000 0c25000,0 45000,-21000 45000,-45000 0,-25000 -20000,-45000 -45000,-45000l-330000 0 0 90000zm-552000 28000c-24000,0 -45000,20000 -45000,45000 0,24000 21000,44000 45000,44000l330000 0 0 -89000 -330000 0zm552000 89000l330000 0c25000,0 45000,-20000 45000,-44000 0,-25000 -20000,-45000 -45000,-45000l-330000 0 0 89000zm-552000 29000c-24000,0 -45000,20000 -45000,44000 0,25000 21000,45000 45000,45000l330000 0 0 -89000 -330000 0zm552000 89000l330000 0c25000,0 45000,-20000 45000,-45000 0,-24000 -20000,-44000 -45000,-44000l-330000 0 0 89000zm-554000 420000c-24000,0 -45000,20000 -45000,45000 0,25000 21000,45000 45000,45000l332000 0 0 -90000 -332000 0zm554000 90000l332000 0c24000,0 45000,-20000 45000,-45000 0,-25000 -21000,-45000 -45000,-45000l-332000 0 0 90000zm-120000 113000l19000 0 0 -1244000 -19000 0 0 1244000zm-142000 -1094000l40000 0 0 -87000c-1000,-2000 -3000,-3000 -5000,-4000 2000,7000 3000,14000 3000,21000 0,29000 -15000,55000 -38000,70000zm-111000 -139000c-136000,0 -246000,108000 -246000,240000 0,17000 2000,34000 6000,51000 11000,-19000 31000,-31000 53000,-34000 -10000,-13000 -16000,-29000 -16000,-45000 0,-40000 33000,-73000 73000,-73000l149000 0c-23000,-15000 -38000,-41000 -38000,-70000 0,-27000 14000,-53000 36000,-68000 -6000,-1000 -12000,-1000 -17000,-1000zm-246000 357000l0 63000c4000,-11000 11000,-20000 20000,-28000l-2000 -3000 3000 -3000c-9000,-7000 -17000,-17000 -21000,-29000zm0 118000l0 63000c5000,-12000 14000,-23000 25000,-31000 -11000,-9000 -20000,-20000 -25000,-32000zm0 118000l0 450000c12000,-24000 37000,-41000 65000,-41000l332000 0 0 -364000 -330000 0c-30000,0 -56000,-18000 -67000,-45000zm0 640000l397000 0 0 -85000 -332000 0c-28000,0 -53000,-17000 -65000,-41000l0 126000zm619000 -1094000l40000 0c-23000,-15000 -38000,-41000 -38000,-70000 0,-7000 1000,-14000 3000,-21000 -2000,1000 -4000,2000 -5000,4000l0 87000zm338000 118000c22000,3000 42000,15000 53000,34000 4000,-17000 6000,-34000 6000,-51000 0,-132000 -110000,-240000 -246000,-240000 -5000,0 -11000,0 -17000,1000 22000,15000 36000,41000 36000,68000 0,29000 -15000,55000 -38000,70000l149000 0c40000,0 73000,33000 73000,73000 0,17000 -5000,32000 -16000,45000zm39000 135000c9000,8000 16000,17000 20000,28000l0 -62000c-4000,11000 -12000,21000 -21000,28000l3000 3000 -2000 3000zm-5000 115000c11000,8000 20000,19000 25000,31000l0 -63000c-5000,12000 -14000,23000 -25000,32000zm-372000 495000l332000 0c28000,0 53000,16000 65000,41000l0 -450000c-11000,27000 -37000,45000 -67000,45000l-330000 0 0 364000zm0 231000l397000 0 0 -126000c-12000,24000 -37000,41000 -65000,41000l-332000 0 0 85000zm-194000 1000l46000 0 0 -1246000 -46000 0 0 151000 2000 0 0 499000 -2000 0 0 596000zm121000 0l45000 0 0 -596000 -2000 0 0 -499000 2000 0 0 -151000 -45000 0 0 1246000zm498000 28000l-1072000 0 0 -1302000 1072000 0 0 1302000zm-237000 -566000c-71000,0 -129000,58000 -129000,129000 0,71000 58000,129000 129000,129000 71000,0 129000,-58000 129000,-129000 0,-71000 -58000,-129000 -129000,-129000zm0 286000c-87000,0 -157000,-70000 -157000,-157000 0,-86000 70000,-157000 157000,-157000 87000,0 157000,71000 157000,157000 0,87000 -70000,157000 -157000,157000zm0 -213000c-31000,0 -56000,25000 -56000,56000 0,31000 25000,57000 56000,57000 31000,0 57000,-26000 57000,-57000 0,-31000 -26000,-56000 -57000,-56000zm0 141000c-46000,0 -84000,-38000 -84000,-85000 0,-46000 38000,-84000 84000,-84000 47000,0 85000,38000 85000,84000 0,47000 -38000,85000 -85000,85000zm-598000 -214000c-71000,0 -129000,58000 -129000,129000 0,71000 58000,129000 129000,129000 71000,0 129000,-58000 129000,-129000 0,-71000 -58000,-129000 -129000,-129000zm0 286000c-87000,0 -157000,-70000 -157000,-157000 0,-86000 70000,-157000 157000,-157000 86000,0 157000,71000 157000,157000 0,87000 -71000,157000 -157000,157000zm0 -213000c-31000,0 -57000,25000 -57000,56000 0,31000 26000,57000 57000,57000 31000,0 56000,-26000 56000,-57000 0,-31000 -25000,-56000 -56000,-56000zm0 141000c-47000,0 -85000,-38000 -85000,-85000 0,-46000 38000,-84000 85000,-84000 46000,0 84000,38000 84000,84000 0,47000 -38000,85000 -84000,85000zm299000 -1022000c-26000,0 -46000,-20000 -46000,-46000 0,-26000 21000,-47000 46000,-47000 25000,0 47000,22000 47000,47000 0,25000 -21000,46000 -47000,46000z"/>
  <g id="_1763766239648">
   <line class="fil0" x1="465000" y1="2992000" x2="2154000" y2= "2992000" />
   <polygon class="fil1" points="2154000,2995000 465000,2995000 465000,2989000 2154000,2989000 "/>
  </g>
 </g>
</svg>
