<?xml version="1.0" encoding="utf-8"?>
<!-- Generator: Adobe Illustrator 24.0.2, SVG Export Plug-In . SVG Version: 6.00 Build 0)  -->
<svg version="1.1" id="Ebene_1" xmlns="http://www.w3.org/2000/svg" xmlns:xlink="http://www.w3.org/1999/xlink" x="0px" y="0px"
	 viewBox="0 0 172.9 258" style="enable-background:new 0 0 172.9 258;" xml:space="preserve">
<style type="text/css">
	.st0{fill-rule:evenodd;clip-rule:evenodd;fill:#002C1F;}
	.st1{fill:#C9A823;}
</style>
<g>
	<rect x="-0.3" class="st0" width="172.9" height="258"/>
	<path class="st1" d="M42.8,171.5h3.3v1H35.8v-1h3.3v-39h-3.3v-1h7V171.5z M40.9,122.2c1.3,0,2.4,1.1,2.4,2.4c0,1.3-1.1,2.3-2.4,2.3
		c-1.3,0-2.3-1-2.3-2.3C38.6,123.3,39.6,122.2,40.9,122.2z"/>
	<path class="st1" d="M68.2,137c1-4.3,0.6-4.5-3.6-4.5v-1h9.1v1c-2.7,0-3.3,0.6-4.1,4.6l-7.9,35.5h-2.5l-8.5-40h-3v-1h11.1v1h-4.3
		l7.1,35.1h0.1L68.2,137z"/>
	<path class="st1" d="M84.2,172.8c-6.5,0-9-3.4-9-8.5v-4.8c0-5.1,4.3-7.6,9.8-9.4c4.2-1.4,6.8-2.7,6.8-5.9v-3.8
		c0-5.2-0.7-8.2-5.7-8.2c-5.1,0-6.2,2.2-6.2,7.4v5.6h-3.4v-6c0-4.3,3.2-8,9.6-8c6.7,0,9.4,2.6,9.4,8v29.1c0,2.4,0.3,3.3,1.7,3.3
		c1.5,0,2-0.9,2-3v-11.7h1.1v11.7c0,2.6-0.8,4.2-4.3,4.2c-2.7,0-3.9-1.4-4.1-3.4C90.5,171,88.7,172.8,84.2,172.8 M91.7,147.2
		c-1.1,1.9-2.7,2.6-6.4,3.9c-4.5,1.6-6.4,3.8-6.4,9.3v3.5c0,5.1,1.1,7.9,5.5,7.9c4,0,7.3-1.7,7.3-7.2V147.2z"/>
	<path class="st1" d="M117.8,132.5h-8.3v33.6c0,3.8,0.9,5.6,3.5,5.6c3,0,3.6-2,3.6-5.1v-9.8h1.2v10.5c0,3.5-1.8,5.4-5.5,5.4
		c-4.8,0-6.5-2.1-6.5-6.8v-33.4h-3.3v-1h3.3v-8h3.7v8h8.3V132.5z"/>
	<path class="st1" d="M127.9,171.5h3.3v1h-10.3v-1h3.3v-39h-3.3v-1h7V171.5z M126.1,122.2c1.3,0,2.4,1.1,2.4,2.4
		c0,1.3-1.1,2.3-2.4,2.3c-1.3,0-2.3-1-2.3-2.3C123.7,123.3,124.8,122.2,126.1,122.2z"/>
	<rect x="35.8" y="179.6" class="st1" width="95.5" height="0.3"/>
	<path class="st1" d="M83.5,29.9c1.3,0,2.4-1,2.4-2.3c0-1.3-1.1-2.4-2.4-2.4c-1.3,0-2.3,1.1-2.3,2.4C81.2,28.9,82.2,29.9,83.5,29.9
		 M83.5,26.3c0.7,0,1.3,0.6,1.3,1.3c0,0.7-0.6,1.3-1.3,1.3c-0.7,0-1.3-0.5-1.3-1.3C82.3,26.9,82.8,26.3,83.5,26.3z"/>
	<path class="st1" d="M83.5,30.2c-1.4,0-2.6-1.1-2.6-2.6c0-1.5,1.2-2.7,2.6-2.7c1.4,0,2.7,1.2,2.7,2.7C86.2,29,85,30.2,83.5,30.2
		 M83.5,25.5c-1.1,0-2,1-2,2.1c0,1.1,0.9,2,2,2c1.2,0,2.1-0.9,2.1-2C85.6,26.5,84.7,25.5,83.5,25.5z M83.5,29.1
		c-0.9,0-1.5-0.7-1.5-1.5c0-0.9,0.7-1.6,1.5-1.6c0.9,0,1.6,0.7,1.6,1.6C85.1,28.4,84.4,29.1,83.5,29.1z M83.5,26.5
		c-0.5,0-1,0.5-1,1.1c0,0.6,0.4,1,1,1c0.6,0,1.1-0.4,1.1-1C84.6,27,84.1,26.5,83.5,26.5z"/>
	<path class="st1" d="M66.6,87.7c2.5,0,4.5-2,4.5-4.5c0-2.5-2-4.5-4.5-4.5c-2.5,0-4.5,2-4.5,4.5C62.1,85.7,64.1,87.7,66.6,87.7
		 M66.6,79.7c1.9,0,3.5,1.5,3.5,3.5c0,1.9-1.5,3.5-3.5,3.5c-1.9,0-3.5-1.5-3.5-3.5C63.2,81.3,64.7,79.7,66.6,79.7z"/>
	<path class="st1" d="M66.6,88c-2.6,0-4.8-2.1-4.8-4.8c0-2.6,2.1-4.8,4.8-4.8c2.6,0,4.8,2.1,4.8,4.8C71.4,85.8,69.3,88,66.6,88
		 M66.6,78.9c-2.3,0-4.2,1.9-4.2,4.2c0,2.3,1.9,4.2,4.2,4.2c2.3,0,4.2-1.9,4.2-4.2C70.9,80.8,69,78.9,66.6,78.9z M66.6,86.9
		c-2,0-3.7-1.7-3.7-3.7c0-2,1.7-3.7,3.7-3.7c2,0,3.7,1.7,3.7,3.7C70.3,85.2,68.7,86.9,66.6,86.9z M66.6,80c-1.8,0-3.2,1.4-3.2,3.2
		c0,1.8,1.4,3.2,3.2,3.2c1.8,0,3.2-1.4,3.2-3.2C69.8,81.4,68.4,80,66.6,80z"/>
	<path class="st1" d="M66.6,91.8c4.8,0,8.6-3.9,8.6-8.6c0-4.8-3.9-8.6-8.6-8.6c-4.8,0-8.6,3.9-8.6,8.6C58,87.9,61.9,91.8,66.6,91.8
		 M66.6,75.6c4.2,0,7.6,3.4,7.6,7.6c0,4.2-3.4,7.6-7.6,7.6c-4.2,0-7.6-3.4-7.6-7.6C59.1,79,62.4,75.6,66.6,75.6z"/>
	<path class="st1" d="M66.6,92.1c-4.9,0-8.9-4-8.9-8.9c0-4.9,4-8.9,8.9-8.9c4.9,0,8.9,4,8.9,8.9C75.5,88.1,71.5,92.1,66.6,92.1
		 M66.6,74.8c-4.6,0-8.4,3.7-8.4,8.4c0,4.6,3.7,8.4,8.4,8.4c4.6,0,8.4-3.7,8.4-8.4C75,78.6,71.2,74.8,66.6,74.8z M66.6,91
		c-4.3,0-7.8-3.5-7.8-7.8c0-4.3,3.5-7.8,7.8-7.8c4.3,0,7.8,3.5,7.8,7.8C74.4,87.5,70.9,91,66.6,91z M66.6,75.9c-4,0-7.3,3.3-7.3,7.3
		c0,4,3.3,7.3,7.3,7.3c4,0,7.3-3.3,7.3-7.3C73.9,79.2,70.6,75.9,66.6,75.9z"/>
	<path class="st1" d="M100.5,78.7c-2.5,0-4.5,2-4.5,4.5c0,2.5,2,4.5,4.5,4.5c2.5,0,4.5-2,4.5-4.5C105,80.7,102.9,78.7,100.5,78.7
		 M100.5,86.6c-1.9,0-3.5-1.6-3.5-3.5c0-1.9,1.5-3.5,3.5-3.5c1.9,0,3.5,1.5,3.5,3.5C103.9,85.1,102.4,86.6,100.5,86.6z"/>
	<path class="st1" d="M100.5,88c-2.6,0-4.8-2.1-4.8-4.8c0-2.6,2.1-4.8,4.8-4.8c2.6,0,4.8,2.1,4.8,4.8C105.2,85.8,103.1,88,100.5,88
		 M100.5,78.9c-2.3,0-4.2,1.9-4.2,4.2c0,2.3,1.9,4.2,4.2,4.2c2.3,0,4.2-1.9,4.2-4.2C104.7,80.8,102.8,78.9,100.5,78.9z M100.5,86.9
		c-2,0-3.7-1.7-3.7-3.7c0-2,1.7-3.7,3.7-3.7c2,0,3.7,1.7,3.7,3.7C104.2,85.2,102.5,86.9,100.5,86.9z M100.5,80
		c-1.8,0-3.2,1.4-3.2,3.2c0,1.8,1.4,3.2,3.2,3.2c1.8,0,3.2-1.4,3.2-3.2C103.6,81.4,102.2,80,100.5,80z"/>
	<path class="st1" d="M100.5,74.6c-4.8,0-8.6,3.9-8.6,8.6c0,4.8,3.9,8.6,8.6,8.6c4.8,0,8.6-3.9,8.6-8.6
		C109.1,78.4,105.2,74.6,100.5,74.6 M100.5,90.8c-4.2,0-7.6-3.4-7.6-7.6c0-4.2,3.4-7.6,7.6-7.6c4.2,0,7.6,3.4,7.6,7.6
		C108,87.4,104.6,90.8,100.5,90.8z"/>
	<path class="st1" d="M100.5,92.1c-4.9,0-8.9-4-8.9-8.9c0-4.9,4-8.9,8.9-8.9c4.9,0,8.9,4,8.9,8.9C109.3,88.1,105.4,92.1,100.5,92.1
		 M100.5,74.8c-4.6,0-8.4,3.7-8.4,8.4c0,4.6,3.7,8.4,8.4,8.4c4.6,0,8.4-3.7,8.4-8.4C108.8,78.6,105.1,74.8,100.5,74.8z M100.5,91
		c-4.3,0-7.8-3.5-7.8-7.8c0-4.3,3.5-7.8,7.8-7.8c4.3,0,7.8,3.5,7.8,7.8C108.3,87.5,104.8,91,100.5,91z M100.5,75.9
		c-4,0-7.3,3.3-7.3,7.3c0,4,3.3,7.3,7.3,7.3c4,0,7.3-3.3,7.3-7.3C107.7,79.2,104.5,75.9,100.5,75.9z"/>
	<path class="st1" d="M88.5,34.6L88.5,34.6h-3.1h-0.1h-6.7H53.5v73h25.1v0h9.9v0h25.1v-73H88.5z M112.5,44.7
		c-1.8-4.5-5.8-7.9-10.7-9.1h10.7V44.7z M108.5,51.3h-0.1c0.7-0.7,1.2-1.7,1.2-2.8c0-2.1-1.7-3.9-3.9-3.9h-9.6c1.7-0.6,3-2.3,3-4.2
		c0-1.8-1.1-3.3-2.6-4c0.6-0.1,1.2-0.1,1.8-0.1c7.8,0,14.2,6.2,14.2,13.8c0,1.2-0.2,2.5-0.5,3.6C111.5,52.3,110.1,51.3,108.5,51.3z
		 M105.7,51.3H89.5v-5.6h16.2c1.5,0,2.8,1.3,2.8,2.8C108.5,50.1,107.3,51.3,105.7,51.3z M94.7,37c1.9,0,3.4,1.5,3.4,3.4
		c0,1.9-1.5,3.4-3.4,3.4s-3.4-1.5-3.4-3.4C91.3,38.6,92.8,37,94.7,37z M89.5,38v-2.4h5.4C93,36.1,91.2,36.9,89.5,38z M89.5,39.3
		c0.4-0.3,0.7-0.5,1.1-0.8c-0.3,0.6-0.4,1.2-0.4,1.9c0,1.9,1.3,3.6,3,4.2h-3.7V39.3z M89.5,65.7h18.9c1.5,0,2.8,1.3,2.8,2.8
		c0,1.5-1.3,2.8-2.8,2.8H89.5V65.7z M89.5,64.6V59h18.9c1.5,0,2.8,1.3,2.8,2.8c0,1.5-1.3,2.8-2.8,2.8H89.5z M108.5,58H89.5v-5.6
		h16.2h2.7c1.5,0,2.8,1.3,2.8,2.8C111.3,56.7,110,58,108.5,58z M55,53.7c-0.3-1.2-0.5-2.4-0.5-3.6c0-7.6,6.4-13.8,14.2-13.8
		c0.6,0,1.2,0.1,1.8,0.1c-1.5,0.7-2.6,2.2-2.6,4c0,1.9,1.3,3.6,3,4.2h-9.6c-2.1,0-3.9,1.7-3.9,3.9c0,1.1,0.5,2.1,1.2,2.8h-0.1
		C57,51.3,55.6,52.3,55,53.7z M58.6,48.5c0-1.5,1.3-2.8,2.8-2.8h16.2v5.6H61.4C59.8,51.3,58.6,50.1,58.6,48.5z M75.8,40.4
		c0,1.9-1.5,3.4-3.4,3.4c-1.9,0-3.4-1.5-3.4-3.4c0-1.9,1.5-3.4,3.4-3.4C74.3,37,75.8,38.6,75.8,40.4z M58.6,52.4h2.7h16.2V58H58.6
		c-1.5,0-2.8-1.3-2.8-2.8C55.8,53.6,57.1,52.4,58.6,52.4z M58.6,59h18.9v5.6H58.6c-1.5,0-2.8-1.3-2.8-2.8C55.8,60.3,57.1,59,58.6,59
		z M77.5,65.7v5.6H58.6c-1.5,0-2.8-1.3-2.8-2.8c0-1.5,1.3-2.8,2.8-2.8H77.5z M73.9,44.6c1.7-0.6,3-2.3,3-4.2c0-0.7-0.2-1.3-0.4-1.9
		c0.4,0.2,0.7,0.5,1.1,0.8v5.3H73.9z M77.5,38c-1.6-1.1-3.5-1.9-5.4-2.4h5.4V38z M65.2,35.6c-4.9,1.1-8.9,4.6-10.7,9.1v-9.1H65.2z
		 M54.5,106.5V54.3l0.3-0.1c-0.1,0.3-0.1,0.6-0.1,1c0,1.3,0.7,2.5,1.7,3.2l-0.3,0.2l0.1,0.2c-0.9,0.7-1.6,1.8-1.6,3.1
		c0,1.4,0.8,2.7,1.9,3.3c-1.2,0.7-1.9,1.9-1.9,3.3c0,2.1,1.7,3.9,3.9,3.9h18.9v21.1h-19c-2.1,0-3.9,1.7-3.9,3.9
		c0,2.1,1.7,3.9,3.9,3.9h19v5.4H54.5z M77.5,100.1h-19c-1.5,0-2.8-1.3-2.8-2.8c0-1.5,1.3-2.8,2.8-2.8h19V100.1z M81.7,106.6h-3.1
		v-5.4v-7.7V72.4h0.1v-6.7v-1.1V59V58v-5.6v-1.1v-6.7h-0.1v-9.1h3.1V106.6z M84.3,106.5h-1.6V35.6h1.6V106.5z M85.4,106.6V35.6h3.1
		v9h-0.1v6.7v1.1V58V59v5.6v1.1v6.7h0.1v21.1v7.7v5.4H85.4z M89.5,94.5h19c1.5,0,2.8,1.3,2.8,2.8c0,1.5-1.3,2.8-2.8,2.8h-19V94.5z
		 M89.5,106.5v-5.4h19c2.1,0,3.9-1.7,3.9-3.9c0-2.1-1.7-3.9-3.9-3.9h-19V72.4h18.9c2.1,0,3.9-1.7,3.9-3.9c0-1.4-0.8-2.7-1.9-3.3
		c1.2-0.7,1.9-1.9,1.9-3.3c0-1.3-0.6-2.4-1.6-3.1l0.1-0.2l-0.3-0.2c1-0.7,1.7-1.9,1.7-3.2c0-0.3-0.1-0.6-0.1-1l0.4,0.1v52.2H89.5z"
		/>
	<path class="st1" d="M113.9,107.9H53.2V34.3h60.6V107.9z M88.7,107.3h24.6V34.8H53.7v72.5H88.7z M88.7,106.8h-3.6V35.3h3.6v9.6
		h-0.1v27.2h0.1V106.8z M85.7,106.3h2.5V72.6h-0.1V44.4h0.1v-8.5h-2.5V106.3z M82,106.8h-3.6V72.1h0.1V44.9h-0.1v-9.6H82V106.8z
		 M78.9,106.3h2.6V35.8h-2.6v8.6H79v28.2h-0.1V106.3z M112.8,106.8H89.3v-5.9h19.3c2,0,3.6-1.6,3.6-3.6c0-2-1.6-3.6-3.6-3.6H89.3
		V72.1h19.2c2,0,3.6-1.6,3.6-3.6c0-1.3-0.7-2.5-1.8-3.1l-0.4-0.2l0.4-0.2c1.1-0.6,1.8-1.8,1.8-3.1c0-1.1-0.5-2.2-1.5-2.9l-0.2-0.2
		l0.1-0.2l-0.4-0.3l0.3-0.2c1-0.7,1.6-1.8,1.6-3c0-0.3,0-0.6-0.1-0.9l-0.1-0.5c-0.6-1.4-1.9-2.2-3.3-2.2h-0.8l0.5-0.5
		c0.7-0.7,1.1-1.6,1.1-2.6c0-2-1.6-3.6-3.6-3.6H89.3v-5.7l0.1-0.1c0.3-0.3,0.7-0.5,1.1-0.8l0.8-0.5l-0.4,0.8
		c-0.3,0.6-0.4,1.2-0.4,1.8c0,1.8,1.1,3.4,2.8,4l1.4,0.5l1.4-0.5c1.7-0.6,2.8-2.2,2.8-4c0-1.6-1-3.1-2.4-3.8l-0.8-0.4l0.9-0.1
		c0.7-0.1,1.3-0.1,1.9-0.1c8,0,14.4,6.3,14.4,14.1c0,1.2-0.2,2.5-0.5,3.7l0,0.2l0.6,0.2V106.8z M89.8,106.3h22.5v-7.2
		c-0.7,1.4-2.1,2.3-3.7,2.3H89.8V106.3z M89.8,93.2h18.8c1.6,0,3,0.9,3.7,2.3V70.1c-0.6,1.5-2.1,2.6-3.8,2.6H89.8V93.2z M110.9,65.2
		c0.6,0.5,1.1,1.1,1.4,1.8v-3.6C112,64.1,111.5,64.7,110.9,65.2z M111.1,58.7c0.5,0.4,0.9,1,1.2,1.6v-3.5c-0.3,0.6-0.7,1.2-1.2,1.6
		l0.2,0.1L111.1,58.7z M108.9,51.1c1.2,0.1,2.4,0.8,3,1.9c0.2-1,0.3-1.9,0.3-2.9c0-7.5-6.2-13.6-13.9-13.6c-0.3,0-0.6,0-1,0
		c1.3,0.9,2,2.3,2,3.9c0,1.6-0.8,3.1-2.1,3.9h8.4c2.3,0,4.1,1.8,4.1,4.1C109.8,49.4,109.5,50.3,108.9,51.1z M89.8,44.4h2.3
		c-1.3-0.9-2.1-2.3-2.1-3.9c0-0.4,0.1-0.8,0.2-1.2c-0.1,0.1-0.2,0.1-0.3,0.2V44.4z M77.8,106.8H54.3V54.1l0.6-0.2l0-0.2
		c-0.3-1.2-0.5-2.5-0.5-3.7c0-7.8,6.5-14.1,14.4-14.1c0.6,0,1.2,0,1.9,0.1l0.9,0.1l-0.8,0.4c-1.5,0.7-2.4,2.2-2.4,3.8
		c0,1.8,1.1,3.4,2.8,4l1.4,0.5l1.4-0.5c1.7-0.6,2.8-2.2,2.8-4c0-0.6-0.1-1.2-0.4-1.8l-0.4-0.8l0.8,0.5c0.4,0.2,0.8,0.5,1.1,0.8
		l0.1,0.1v5.7H61.4c-2,0-3.6,1.6-3.6,3.6c0,1,0.4,1.9,1.1,2.6l0.5,0.5h-0.8c-1.5,0-2.8,0.9-3.3,2.2L55.2,54l-0.1,0.3
		c-0.1,0.3-0.1,0.6-0.1,0.9c0,1.2,0.6,2.3,1.6,3l0.3,0.2l-0.4,0.3l0.1,0.2L56.5,59c-0.9,0.7-1.5,1.7-1.5,2.9c0,1.3,0.7,2.5,1.8,3.1
		l0.4,0.2l-0.4,0.2C55.7,66,55,67.2,55,68.5c0,2,1.6,3.6,3.6,3.6h19.2v21.6H58.5c-2,0-3.6,1.6-3.6,3.6c0,2,1.6,3.6,3.6,3.6h19.3
		V106.8z M54.8,106.3h22.5v-4.8H58.5c-1.6,0-3-0.9-3.7-2.3V106.3z M54.8,70.1v25.4c0.7-1.4,2.1-2.3,3.7-2.3h18.8V72.6H58.6
		C56.9,72.6,55.4,71.6,54.8,70.1z M54.8,63.4v3.6c0.3-0.7,0.8-1.3,1.4-1.8C55.6,64.7,55.1,64.1,54.8,63.4z M54.8,56.7v3.5
		c0.3-0.6,0.6-1.1,1.2-1.6l-0.1-0.2l0.2-0.2C55.5,57.9,55.1,57.4,54.8,56.7z M68.7,36.5c-7.7,0-13.9,6.1-13.9,13.6
		c0,1,0.1,1.9,0.3,2.9c0.7-1.1,1.8-1.8,3-1.9c-0.6-0.7-0.9-1.6-0.9-2.6c0-2.3,1.8-4.1,4.1-4.1h8.4c-1.3-0.9-2.1-2.3-2.1-3.9
		c0-1.5,0.8-3,2-3.9C69.3,36.5,69,36.5,68.7,36.5z M75,44.4h2.3v-4.9c-0.1-0.1-0.2-0.1-0.3-0.2c0.1,0.4,0.2,0.8,0.2,1.2
		C77.1,42,76.3,43.5,75,44.4z M84.6,106.8h-2.1V35.3h2.1V106.8z M83,106.2h1V35.9h-1V106.2z M108.6,100.4H89.3v-6.1h19.3
		c1.7,0,3.1,1.4,3.1,3.1C111.6,99,110.3,100.4,108.6,100.4z M89.8,99.8h18.8c1.4,0,2.5-1.1,2.5-2.5c0-1.4-1.1-2.5-2.5-2.5H89.8V99.8
		z M77.8,100.4H58.5c-1.7,0-3.1-1.4-3.1-3.1c0-1.7,1.4-3.1,3.1-3.1h19.3V100.4z M58.5,94.8c-1.4,0-2.5,1.1-2.5,2.5
		c0,1.4,1.1,2.5,2.5,2.5h18.8v-5.1H58.5z M108.5,71.6H89.3v-6.1h19.2c1.7,0,3.1,1.4,3.1,3.1C111.5,70.2,110.1,71.6,108.5,71.6z
		 M89.8,71h18.7c1.4,0,2.5-1.1,2.5-2.5c0-1.4-1.1-2.5-2.5-2.5H89.8V71z M77.8,71.6H58.6c-1.7,0-3.1-1.4-3.1-3.1
		c0-1.7,1.4-3.1,3.1-3.1h19.2V71.6z M58.6,66c-1.4,0-2.5,1.1-2.5,2.5c0,1.4,1.1,2.5,2.5,2.5h18.7V66H58.6z M108.5,64.9H89.3v-6.1
		h19.2c1.7,0,3.1,1.4,3.1,3.1C111.5,63.5,110.1,64.9,108.5,64.9z M89.8,64.4h18.7c1.4,0,2.5-1.1,2.5-2.5c0-1.4-1.1-2.5-2.5-2.5H89.8
		V64.4z M77.8,64.9H58.6c-1.7,0-3.1-1.4-3.1-3.1c0-1.7,1.4-3.1,3.1-3.1h19.2V64.9z M58.6,59.3c-1.4,0-2.5,1.1-2.5,2.5
		c0,1.4,1.1,2.5,2.5,2.5h18.7v-5.1H58.6z M108.5,58.2H89.3v-6.1h19.2c1.7,0,3.1,1.4,3.1,3.1C111.5,56.9,110.1,58.2,108.5,58.2z
		 M89.8,57.7h18.7c1.4,0,2.5-1.1,2.5-2.5c0-1.4-1.1-2.5-2.5-2.5H89.8V57.7z M77.8,58.2H58.6c-1.7,0-3.1-1.4-3.1-3.1
		c0-1.7,1.4-3.1,3.1-3.1h19.2V58.2z M58.6,52.6c-1.4,0-2.5,1.1-2.5,2.5c0,1.4,1.1,2.5,2.5,2.5h18.7v-5.1H58.6z M105.7,51.6H89.3
		v-6.1h16.4c1.7,0,3.1,1.4,3.1,3.1C108.8,50.2,107.4,51.6,105.7,51.6z M89.8,51h15.9c1.4,0,2.5-1.1,2.5-2.5c0-1.4-1.1-2.5-2.5-2.5
		H89.8V51z M77.8,51.6H61.4c-1.7,0-3.1-1.4-3.1-3.1c0-1.7,1.4-3.1,3.1-3.1h16.4V51.6z M61.4,46c-1.4,0-2.5,1.1-2.5,2.5
		c0,1.4,1.1,2.5,2.5,2.5h15.9V46H61.4z M54.3,46.1V35.3h13.3l-2.3,0.5c-4.8,1.1-8.7,4.4-10.5,8.9L54.3,46.1z M54.8,35.9v7.6
		c1.8-3.5,4.8-6.2,8.6-7.6H54.8z M112.8,46.1l-0.5-1.3c-1.8-4.5-5.7-7.8-10.5-8.9l-2.3-0.5h13.3V46.1z M103.7,35.9
		c3.7,1.3,6.8,4.1,8.6,7.6v-7.6H103.7z M94.7,44.1c-2,0-3.7-1.6-3.7-3.7c0-2,1.6-3.7,3.7-3.7c2,0,3.7,1.7,3.7,3.7
		C98.3,42.5,96.7,44.1,94.7,44.1z M94.7,37.3c-1.7,0-3.1,1.4-3.1,3.1c0,1.7,1.4,3.1,3.1,3.1c1.7,0,3.1-1.4,3.1-3.1
		C97.8,38.7,96.4,37.3,94.7,37.3z M72.4,44.1c-2,0-3.7-1.6-3.7-3.7c0-2,1.6-3.7,3.7-3.7c2,0,3.7,1.7,3.7,3.7
		C76.1,42.5,74.4,44.1,72.4,44.1z M72.4,37.3c-1.7,0-3.1,1.4-3.1,3.1c0,1.7,1.4,3.1,3.1,3.1c1.7,0,3.1-1.4,3.1-3.1
		C75.6,38.7,74.1,37.3,72.4,37.3z M89.3,38.5v-3.2h8L95,35.9c-1.9,0.4-3.7,1.2-5.3,2.3L89.3,38.5z M89.8,35.9v1.6
		c1-0.7,2.1-1.2,3.3-1.6H89.8z M77.8,38.5l-0.4-0.3c-1.6-1.1-3.4-1.9-5.3-2.3l-2.3-0.5h8V38.5z M74,35.9c1.1,0.4,2.2,1,3.3,1.6v-1.6
		H74z"/>
	<rect x="54.3" y="204.6" class="st1" width="1" height="8.3"/>
	<path class="st1" d="M59,209.2c0.2,0.1,0.4,0.2,0.7,0.3c0.2,0.1,0.5,0.3,0.6,0.4c0.2,0.2,0.4,0.4,0.5,0.6c0.1,0.2,0.2,0.5,0.2,0.8
		c0,0.2,0,0.4-0.1,0.6c-0.1,0.2-0.2,0.4-0.4,0.6c-0.2,0.2-0.4,0.3-0.7,0.4c-0.3,0.1-0.6,0.2-1,0.2c-0.3,0-0.6,0-0.8-0.1
		c-0.2-0.1-0.4-0.1-0.6-0.2c-0.2-0.1-0.4-0.2-0.5-0.3v-1.2c0.1,0.2,0.2,0.3,0.4,0.5c0.2,0.1,0.3,0.2,0.6,0.3
		c0.2,0.1,0.5,0.1,0.9,0.1c0.2,0,0.4,0,0.6-0.1c0.2-0.1,0.3-0.1,0.4-0.2c0.1-0.1,0.2-0.2,0.3-0.3c0.1-0.1,0.1-0.2,0.1-0.3
		c0-0.2,0-0.4-0.1-0.5c-0.1-0.1-0.2-0.3-0.3-0.4c-0.1-0.1-0.3-0.2-0.5-0.3c-0.2-0.1-0.3-0.1-0.5-0.2c-0.6-0.3-1.1-0.6-1.3-0.9
		c-0.3-0.3-0.4-0.6-0.4-1c0-0.2,0-0.4,0.1-0.6c0.1-0.2,0.2-0.4,0.4-0.5c0.2-0.1,0.4-0.3,0.6-0.4c0.2-0.1,0.5-0.1,0.8-0.1h0
		c0.2,0,0.4,0,0.6,0.1c0.2,0,0.4,0.1,0.5,0.1c0.2,0.1,0.3,0.1,0.4,0.2v1.2c-0.1-0.1-0.2-0.2-0.3-0.3c-0.1-0.1-0.2-0.2-0.3-0.2
		c-0.1-0.1-0.3-0.1-0.4-0.2c-0.2,0-0.3-0.1-0.6-0.1c-0.2,0-0.4,0-0.5,0.1c-0.1,0.1-0.3,0.1-0.3,0.2c-0.1,0.1-0.1,0.2-0.2,0.3
		c0,0.1-0.1,0.2-0.1,0.3c0,0.1,0,0.2,0.1,0.3c0.1,0.1,0.2,0.2,0.3,0.3c0.1,0.1,0.2,0.2,0.4,0.2C58.7,209.1,58.8,209.1,59,209.2"/>
	<rect x="62.2" y="204.1" class="st1" width="0.9" height="8.8"/>
	<path class="st1" d="M67.7,212.2c0.3,0,0.6-0.1,0.9-0.2c0.3-0.1,0.5-0.3,0.7-0.5c0.2-0.2,0.4-0.5,0.5-0.8c0.1-0.3,0.2-0.6,0.2-0.9
		c0-0.3-0.1-0.6-0.2-0.9c-0.1-0.3-0.3-0.6-0.5-0.8c-0.2-0.2-0.5-0.4-0.7-0.5c-0.3-0.1-0.6-0.2-0.9-0.2c-0.3,0-0.7,0.1-0.9,0.2
		c-0.3,0.1-0.5,0.3-0.7,0.5c-0.2,0.2-0.4,0.5-0.5,0.8c-0.1,0.3-0.2,0.6-0.2,0.9c0,0.3,0.1,0.6,0.2,0.9c0.1,0.3,0.3,0.6,0.5,0.8
		c0.2,0.2,0.5,0.4,0.7,0.5C67.1,212.2,67.4,212.2,67.7,212.2 M71,206.7v6.3h-0.9v-1c-0.1,0.2-0.3,0.3-0.4,0.5
		c-0.2,0.1-0.4,0.3-0.6,0.4c-0.2,0.1-0.4,0.2-0.6,0.2c-0.2,0.1-0.5,0.1-0.7,0.1c-0.5,0-0.9-0.1-1.3-0.3c-0.4-0.2-0.8-0.4-1-0.7
		c-0.3-0.3-0.5-0.6-0.7-1c-0.2-0.4-0.3-0.8-0.3-1.3c0-0.5,0.1-0.9,0.3-1.3c0.2-0.4,0.4-0.7,0.7-1c0.3-0.3,0.6-0.5,1-0.7
		c0.4-0.2,0.8-0.3,1.3-0.3c0.2,0,0.5,0,0.7,0.1c0.2,0.1,0.5,0.1,0.7,0.3c0.2,0.1,0.4,0.2,0.6,0.4c0.2,0.1,0.3,0.3,0.4,0.5v-1H71z"/>
	<path class="st1" d="M79.5,206.5c0.4,0,0.7,0.1,1,0.2c0.3,0.1,0.6,0.3,0.8,0.5c0.2,0.2,0.4,0.5,0.5,0.9c0.1,0.3,0.2,0.7,0.2,1.1
		v3.7h-0.9v-3.7c0-0.6-0.1-1.1-0.4-1.4c-0.3-0.3-0.7-0.5-1.2-0.5c-0.3,0-0.5,0-0.7,0.1c-0.2,0.1-0.4,0.2-0.5,0.4
		c-0.1,0.2-0.2,0.4-0.3,0.6c-0.1,0.2-0.1,0.5-0.1,0.7v0v3.7H77v-3.7c0-0.6-0.1-1.1-0.4-1.4c-0.3-0.3-0.7-0.5-1.2-0.5
		c-0.3,0-0.5,0-0.7,0.1c-0.2,0.1-0.4,0.2-0.5,0.4c-0.1,0.2-0.2,0.4-0.3,0.6c-0.1,0.2-0.1,0.5-0.1,0.7v3.7h-0.9v-6.2h0.9v0.6
		c0.2-0.3,0.5-0.5,0.7-0.6c0.2-0.1,0.5-0.2,0.9-0.2c0.5,0,0.9,0.1,1.3,0.3c0.4,0.2,0.7,0.5,0.9,0.9c0.3-0.5,0.6-0.8,0.9-1
		C78.8,206.6,79.1,206.5,79.5,206.5"/>
	<path class="st1" d="M84.4,204c0.2,0,0.4,0.1,0.5,0.2c0.1,0.1,0.2,0.3,0.2,0.5c0,0.2-0.1,0.4-0.2,0.5c-0.1,0.1-0.3,0.2-0.5,0.2
		c-0.2,0-0.4-0.1-0.5-0.2c-0.1-0.1-0.2-0.3-0.2-0.5c0-0.2,0.1-0.4,0.2-0.5C84.1,204.1,84.2,204,84.4,204 M84,206.7h0.9v6.3H84V206.7
		z"/>
	<path class="st1" d="M88.6,209.2c0.2,0.1,0.4,0.2,0.7,0.3c0.2,0.1,0.5,0.3,0.6,0.4c0.2,0.2,0.4,0.4,0.5,0.6
		c0.1,0.2,0.2,0.5,0.2,0.8c0,0.2,0,0.4-0.1,0.6c-0.1,0.2-0.2,0.4-0.4,0.6c-0.2,0.2-0.4,0.3-0.7,0.4c-0.3,0.1-0.6,0.2-1,0.2
		c-0.3,0-0.6,0-0.8-0.1c-0.2-0.1-0.4-0.1-0.6-0.2c-0.2-0.1-0.4-0.2-0.5-0.3v-1.2c0.1,0.2,0.2,0.3,0.4,0.5c0.2,0.1,0.3,0.2,0.6,0.3
		c0.2,0.1,0.5,0.1,0.9,0.1c0.2,0,0.4,0,0.6-0.1c0.2-0.1,0.3-0.1,0.4-0.2c0.1-0.1,0.2-0.2,0.3-0.3c0.1-0.1,0.1-0.2,0.1-0.3
		c0-0.2,0-0.4-0.1-0.5c-0.1-0.1-0.2-0.3-0.3-0.4c-0.1-0.1-0.3-0.2-0.5-0.3c-0.2-0.1-0.3-0.1-0.5-0.2c-0.6-0.3-1.1-0.6-1.3-0.9
		c-0.3-0.3-0.4-0.6-0.4-1c0-0.2,0-0.4,0.1-0.6c0.1-0.2,0.2-0.4,0.4-0.5c0.2-0.1,0.4-0.3,0.6-0.4c0.2-0.1,0.5-0.1,0.8-0.1h0
		c0.2,0,0.4,0,0.6,0.1c0.2,0,0.4,0.1,0.5,0.1c0.2,0.1,0.3,0.1,0.4,0.2v1.2c-0.1-0.1-0.2-0.2-0.3-0.3c-0.1-0.1-0.2-0.2-0.3-0.2
		c-0.1-0.1-0.3-0.1-0.4-0.2c-0.2,0-0.3-0.1-0.6-0.1c-0.2,0-0.4,0-0.5,0.1c-0.1,0.1-0.3,0.1-0.3,0.2c-0.1,0.1-0.1,0.2-0.2,0.3
		c0,0.1-0.1,0.2-0.1,0.3c0,0.1,0,0.2,0.1,0.3c0.1,0.1,0.2,0.2,0.3,0.3c0.1,0.1,0.2,0.2,0.4,0.2C88.4,209.1,88.5,209.1,88.6,209.2"/>
	<path class="st1" d="M94.8,207.4c-0.3,0-0.7,0.1-1,0.2c-0.3,0.1-0.6,0.3-0.8,0.5c-0.2,0.2-0.4,0.5-0.5,0.8c-0.1,0.3-0.2,0.6-0.2,1
		c0,0.3,0.1,0.6,0.2,0.9c0.1,0.3,0.3,0.6,0.5,0.8c0.2,0.2,0.5,0.4,0.8,0.5c0.3,0.1,0.6,0.2,1,0.2c0.4,0,0.7-0.1,1-0.2
		c0.3-0.1,0.5-0.2,0.7-0.4c0.2-0.2,0.4-0.3,0.5-0.6v1.2c-0.2,0.1-0.4,0.3-0.6,0.4c-0.2,0.1-0.4,0.2-0.7,0.3
		c-0.3,0.1-0.6,0.1-0.9,0.1c-0.4,0-0.8-0.1-1.2-0.2c-0.4-0.2-0.8-0.4-1.1-0.7c-0.3-0.3-0.6-0.6-0.8-1c-0.2-0.4-0.3-0.9-0.3-1.4
		c0-0.4,0.1-0.8,0.3-1.2c0.2-0.4,0.4-0.7,0.7-1.1c0.3-0.3,0.7-0.6,1.1-0.8c0.4-0.2,0.9-0.3,1.4-0.3c0.3,0,0.6,0,0.9,0.1
		c0.3,0.1,0.5,0.2,0.7,0.3c0.2,0.1,0.4,0.2,0.6,0.4v1.2c-0.1-0.2-0.3-0.4-0.5-0.5c-0.2-0.1-0.4-0.3-0.7-0.4
		C95.5,207.4,95.1,207.4,94.8,207.4"/>
	<path class="st1" d="M101,206.5c0.4,0,0.7,0.1,1.1,0.2c0.3,0.1,0.6,0.3,0.9,0.5c0.2,0.2,0.4,0.5,0.6,0.9c0.1,0.3,0.2,0.7,0.2,1.2
		v3.7h-0.9v-3.7c0-0.3,0-0.6-0.1-0.8c-0.1-0.2-0.2-0.4-0.4-0.6c-0.2-0.2-0.3-0.3-0.6-0.4c-0.2-0.1-0.5-0.1-0.7-0.1
		c-0.3,0-0.5,0-0.7,0.1c-0.2,0.1-0.4,0.2-0.6,0.4c-0.2,0.2-0.3,0.4-0.4,0.6c-0.1,0.2-0.1,0.5-0.1,0.7v3.7h-0.9v-8.8h0.9v3.2
		c0.2-0.3,0.5-0.5,0.8-0.6C100.3,206.6,100.6,206.5,101,206.5"/>
	<path class="st1" d="M108.2,207.3c-0.3,0-0.6,0-0.8,0.1c-0.2,0.1-0.5,0.2-0.7,0.4c-0.2,0.2-0.4,0.4-0.5,0.6
		c-0.1,0.2-0.2,0.5-0.3,0.7h4.6c-0.1-0.3-0.2-0.5-0.3-0.7c-0.1-0.2-0.3-0.4-0.5-0.6c-0.2-0.2-0.4-0.3-0.7-0.4
		C108.7,207.4,108.4,207.3,108.2,207.3 M108.2,206.5c0.5,0,0.9,0.1,1.3,0.3c0.4,0.2,0.7,0.4,1,0.7c0.3,0.3,0.5,0.6,0.7,1
		c0.2,0.4,0.3,0.8,0.3,1.3v0.3h-5.6c0,0.3,0.1,0.6,0.3,0.9c0.1,0.3,0.3,0.5,0.5,0.7c0.2,0.2,0.5,0.3,0.8,0.5c0.3,0.1,0.6,0.2,1,0.2
		c0.2,0,0.4,0,0.7,0c0.2,0,0.4-0.1,0.6-0.2c0.2-0.1,0.4-0.2,0.6-0.4c0.2-0.2,0.4-0.4,0.7-0.6v1.1c-0.2,0.2-0.5,0.4-0.7,0.5
		c-0.3,0.1-0.5,0.2-0.7,0.3c-0.2,0.1-0.5,0.1-0.7,0.1c-0.2,0-0.4,0-0.5,0c-0.5,0-1-0.1-1.4-0.3c-0.4-0.2-0.8-0.4-1.1-0.7
		c-0.3-0.3-0.5-0.6-0.7-1c-0.2-0.4-0.3-0.8-0.3-1.3c0-0.5,0.1-0.9,0.3-1.3c0.2-0.4,0.4-0.7,0.7-1c0.3-0.3,0.6-0.5,1-0.7
		C107.3,206.6,107.7,206.5,108.2,206.5z"/>
	<path class="st1" d="M114.3,209.2c0.2,0.1,0.4,0.2,0.7,0.3c0.2,0.1,0.5,0.3,0.6,0.4c0.2,0.2,0.4,0.4,0.5,0.6
		c0.1,0.2,0.2,0.5,0.2,0.8c0,0.2,0,0.4-0.1,0.6c-0.1,0.2-0.2,0.4-0.4,0.6c-0.2,0.2-0.4,0.3-0.7,0.4c-0.3,0.1-0.6,0.2-1,0.2
		c-0.3,0-0.6,0-0.8-0.1c-0.2-0.1-0.4-0.1-0.6-0.2c-0.2-0.1-0.4-0.2-0.5-0.3v-1.2c0.1,0.2,0.2,0.3,0.4,0.5c0.2,0.1,0.3,0.2,0.6,0.3
		c0.2,0.1,0.5,0.1,0.9,0.1c0.2,0,0.4,0,0.6-0.1c0.2-0.1,0.3-0.1,0.4-0.2c0.1-0.1,0.2-0.2,0.3-0.3c0.1-0.1,0.1-0.2,0.1-0.3
		c0-0.2,0-0.4-0.1-0.5c-0.1-0.1-0.2-0.3-0.3-0.4c-0.1-0.1-0.3-0.2-0.5-0.3c-0.2-0.1-0.3-0.1-0.5-0.2c-0.6-0.3-1.1-0.6-1.3-0.9
		c-0.3-0.3-0.4-0.6-0.4-1c0-0.2,0-0.4,0.1-0.6c0.1-0.2,0.2-0.4,0.4-0.5c0.2-0.1,0.4-0.3,0.6-0.4c0.2-0.1,0.5-0.1,0.8-0.1h0
		c0.2,0,0.4,0,0.6,0.1c0.2,0,0.4,0.1,0.5,0.1c0.2,0.1,0.3,0.1,0.4,0.2v1.2c-0.1-0.1-0.2-0.2-0.3-0.3c-0.1-0.1-0.2-0.2-0.3-0.2
		c-0.1-0.1-0.3-0.1-0.4-0.2c-0.2,0-0.3-0.1-0.6-0.1c-0.2,0-0.4,0-0.5,0.1c-0.1,0.1-0.3,0.1-0.3,0.2c-0.1,0.1-0.1,0.2-0.2,0.3
		c0,0.1-0.1,0.2-0.1,0.3c0,0.1,0,0.2,0.1,0.3c0.1,0.1,0.2,0.2,0.3,0.3c0.1,0.1,0.2,0.2,0.4,0.2C114.1,209.1,114.2,209.1,114.3,209.2
		"/>
	<path class="st1" d="M35.5,226.3c0.3,0,0.6,0,0.9-0.1c0.2-0.1,0.4-0.2,0.6-0.3c0.2-0.1,0.3-0.3,0.3-0.5c0.1-0.2,0.1-0.4,0.1-0.6
		c0-0.2,0-0.4-0.1-0.6c-0.1-0.2-0.2-0.4-0.3-0.5c-0.2-0.1-0.4-0.3-0.6-0.3c-0.2-0.1-0.5-0.1-0.9-0.1h-1.3v3.1H35.5z M35.1,219.7
		h-0.9v2.6h1c0.2,0,0.5,0,0.6-0.1c0.2-0.1,0.3-0.2,0.5-0.3c0.1-0.1,0.2-0.3,0.3-0.4c0.1-0.2,0.1-0.3,0.1-0.5c0-0.2,0-0.3-0.1-0.5
		c-0.1-0.2-0.1-0.3-0.3-0.4c-0.1-0.1-0.3-0.2-0.5-0.3C35.6,219.7,35.3,219.7,35.1,219.7L35.1,219.7z M36.6,222.5
		c0.6,0.2,1.1,0.5,1.4,0.8c0.3,0.4,0.4,0.8,0.4,1.3c0,0.3-0.1,0.7-0.2,1c-0.1,0.3-0.3,0.6-0.5,0.8c-0.2,0.2-0.6,0.4-1,0.5
		c-0.4,0.1-0.9,0.2-1.5,0.2h-2.2v-8.3l1.9,0c0.4,0,0.8,0.1,1.1,0.2c0.3,0.1,0.6,0.3,0.8,0.5c0.2,0.2,0.4,0.4,0.5,0.7
		c0.1,0.3,0.2,0.5,0.2,0.8c0,0.3-0.1,0.6-0.3,0.9C37.1,222.1,36.9,222.4,36.6,222.5z"/>
	<path class="st1" d="M42.5,221.6c-0.3,0-0.6,0-0.8,0.1c-0.2,0.1-0.5,0.2-0.7,0.4c-0.2,0.2-0.4,0.4-0.5,0.6
		c-0.1,0.2-0.2,0.5-0.3,0.7h4.6c-0.1-0.3-0.2-0.5-0.3-0.7c-0.1-0.2-0.3-0.4-0.5-0.6c-0.2-0.2-0.4-0.3-0.7-0.4
		C43,221.6,42.8,221.6,42.5,221.6 M42.5,220.7c0.5,0,0.9,0.1,1.3,0.3c0.4,0.2,0.7,0.4,1,0.7c0.3,0.3,0.5,0.6,0.7,1
		c0.2,0.4,0.3,0.8,0.3,1.3v0.3h-5.6c0,0.3,0.1,0.6,0.3,0.9c0.1,0.3,0.3,0.5,0.5,0.7c0.2,0.2,0.5,0.3,0.8,0.5c0.3,0.1,0.6,0.2,1,0.2
		c0.2,0,0.4,0,0.7,0c0.2,0,0.4-0.1,0.6-0.2c0.2-0.1,0.4-0.2,0.6-0.4c0.2-0.2,0.4-0.4,0.7-0.6v1.1c-0.2,0.2-0.5,0.4-0.7,0.5
		c-0.3,0.1-0.5,0.2-0.7,0.3c-0.2,0.1-0.5,0.1-0.7,0.1c-0.2,0-0.4,0-0.5,0c-0.5,0-1-0.1-1.4-0.3c-0.4-0.2-0.8-0.4-1.1-0.7
		c-0.3-0.3-0.5-0.6-0.7-1c-0.2-0.4-0.3-0.8-0.3-1.3c0-0.5,0.1-0.9,0.3-1.3c0.2-0.4,0.4-0.7,0.7-1c0.3-0.3,0.6-0.5,1-0.7
		C41.6,220.8,42,220.7,42.5,220.7z"/>
	<path class="st1" d="M48.7,223.4c0.2,0.1,0.4,0.2,0.7,0.3c0.2,0.1,0.5,0.3,0.6,0.4c0.2,0.2,0.4,0.4,0.5,0.6
		c0.1,0.2,0.2,0.5,0.2,0.8c0,0.2,0,0.4-0.1,0.6c-0.1,0.2-0.2,0.4-0.4,0.6c-0.2,0.2-0.4,0.3-0.7,0.4c-0.3,0.1-0.6,0.2-1,0.2
		c-0.3,0-0.6,0-0.8-0.1c-0.2-0.1-0.4-0.1-0.6-0.2c-0.2-0.1-0.4-0.2-0.5-0.3v-1.2c0.1,0.2,0.2,0.3,0.4,0.5c0.2,0.1,0.3,0.2,0.6,0.3
		c0.2,0.1,0.5,0.1,0.9,0.1c0.2,0,0.4,0,0.6-0.1c0.2-0.1,0.3-0.1,0.4-0.2c0.1-0.1,0.2-0.2,0.3-0.3c0.1-0.1,0.1-0.2,0.1-0.3
		c0-0.2,0-0.4-0.1-0.5c-0.1-0.1-0.2-0.3-0.3-0.4c-0.1-0.1-0.3-0.2-0.5-0.3c-0.2-0.1-0.3-0.1-0.5-0.2c-0.6-0.3-1.1-0.6-1.3-0.9
		c-0.3-0.3-0.4-0.6-0.4-1c0-0.2,0-0.4,0.1-0.6c0.1-0.2,0.2-0.4,0.4-0.5c0.2-0.1,0.4-0.3,0.6-0.4c0.2-0.1,0.5-0.1,0.8-0.1h0
		c0.2,0,0.4,0,0.6,0.1c0.2,0,0.4,0.1,0.5,0.1c0.2,0.1,0.3,0.1,0.4,0.2v1.2c-0.1-0.1-0.2-0.2-0.3-0.3c-0.1-0.1-0.2-0.2-0.3-0.2
		c-0.1-0.1-0.3-0.1-0.4-0.2c-0.2,0-0.3-0.1-0.6-0.1c-0.2,0-0.4,0-0.5,0.1c-0.1,0.1-0.3,0.1-0.3,0.2c-0.1,0.1-0.1,0.2-0.2,0.3
		c0,0.1-0.1,0.2-0.1,0.3c0,0.1,0,0.2,0.1,0.3c0.1,0.1,0.2,0.2,0.3,0.3c0.1,0.1,0.2,0.2,0.4,0.2C48.4,223.3,48.5,223.4,48.7,223.4"/>
	<path class="st1" d="M54.6,226.4v0.9c-0.5,0.1-0.8,0.1-1.2,0c-0.3-0.1-0.6-0.2-0.7-0.4c-0.2-0.2-0.3-0.4-0.4-0.7
		c-0.1-0.3-0.1-0.6-0.1-0.9v-3.5h-0.9v-0.9h0.9v-1.6h0.9v1.6h1.4v0.9h-1.4v3.5c0,0.2,0,0.4,0.1,0.5c0,0.2,0.1,0.3,0.2,0.4
		c0.1,0.1,0.3,0.2,0.4,0.2C54.1,226.5,54.3,226.5,54.6,226.4"/>
	<path class="st1" d="M58.3,226.5c0.3,0,0.6-0.1,0.9-0.2c0.3-0.1,0.5-0.3,0.7-0.5c0.2-0.2,0.4-0.5,0.5-0.8c0.1-0.3,0.2-0.6,0.2-0.9
		c0-0.3-0.1-0.6-0.2-0.9c-0.1-0.3-0.3-0.6-0.5-0.8c-0.2-0.2-0.5-0.4-0.7-0.5c-0.3-0.1-0.6-0.2-0.9-0.2c-0.3,0-0.7,0.1-0.9,0.2
		c-0.3,0.1-0.5,0.3-0.7,0.5c-0.2,0.2-0.4,0.5-0.5,0.8c-0.1,0.3-0.2,0.6-0.2,0.9c0,0.3,0.1,0.6,0.2,0.9c0.1,0.3,0.3,0.6,0.5,0.8
		c0.2,0.2,0.5,0.4,0.7,0.5C57.6,226.4,57.9,226.5,58.3,226.5 M61.6,220.9v6.3h-0.9v-1c-0.1,0.2-0.3,0.3-0.4,0.5
		c-0.2,0.1-0.4,0.3-0.6,0.4c-0.2,0.1-0.4,0.2-0.6,0.2c-0.2,0.1-0.5,0.1-0.7,0.1c-0.5,0-0.9-0.1-1.3-0.3c-0.4-0.2-0.8-0.4-1-0.7
		c-0.3-0.3-0.5-0.6-0.7-1c-0.2-0.4-0.3-0.8-0.3-1.3c0-0.5,0.1-0.9,0.3-1.3c0.2-0.4,0.4-0.7,0.7-1c0.3-0.3,0.6-0.5,1-0.7
		c0.4-0.2,0.8-0.3,1.3-0.3c0.2,0,0.5,0,0.7,0.1c0.2,0.1,0.5,0.1,0.7,0.3c0.2,0.1,0.4,0.2,0.6,0.4c0.2,0.1,0.3,0.3,0.4,0.5v-1H61.6z"
		/>
	<path class="st1" d="M66,226.4v0.9c-0.5,0.1-0.8,0.1-1.2,0c-0.3-0.1-0.6-0.2-0.7-0.4c-0.2-0.2-0.3-0.4-0.4-0.7
		c-0.1-0.3-0.1-0.6-0.1-0.9v-3.5h-0.9v-0.9h0.9v-1.6h0.9v1.6H66v0.9h-1.4v3.5c0,0.2,0,0.4,0.1,0.5c0,0.2,0.1,0.3,0.2,0.4
		c0.1,0.1,0.3,0.2,0.4,0.2C65.5,226.5,65.8,226.5,66,226.4"/>
	<path class="st1" d="M69.8,226.4v0.9c-0.5,0.1-0.8,0.1-1.2,0c-0.3-0.1-0.6-0.2-0.7-0.4c-0.2-0.2-0.3-0.4-0.4-0.7
		c-0.1-0.3-0.1-0.6-0.1-0.9v-3.5h-0.9v-0.9h0.9v-1.6h0.9v1.6h1.4v0.9h-1.4v3.5c0,0.2,0,0.4,0.1,0.5c0,0.2,0.1,0.3,0.2,0.4
		c0.1,0.1,0.3,0.2,0.4,0.2C69.3,226.5,69.6,226.5,69.8,226.4"/>
	<path class="st1" d="M73.6,227.3c-0.4,0-0.7-0.1-1.1-0.2c-0.3-0.1-0.6-0.3-0.9-0.5c-0.2-0.2-0.4-0.5-0.6-0.9
		c-0.1-0.3-0.2-0.7-0.2-1.2v-3.7h0.9v3.7c0,0.6,0.2,1.1,0.5,1.4c0.3,0.3,0.8,0.5,1.3,0.5c0.3,0,0.5,0,0.7-0.1
		c0.2-0.1,0.4-0.2,0.6-0.4c0.2-0.2,0.3-0.4,0.4-0.6c0.1-0.2,0.1-0.5,0.1-0.7v-3.7h0.9v6.3h-0.9v-0.6c-0.2,0.3-0.5,0.5-0.8,0.6
		C74.3,227.3,73.9,227.3,73.6,227.3"/>
	<path class="st1" d="M80.9,220.7c0.4,0,0.7,0.1,1.1,0.2c0.3,0.1,0.6,0.3,0.9,0.5c0.2,0.2,0.4,0.5,0.6,0.9c0.1,0.3,0.2,0.7,0.2,1.1
		v3.7h-0.9v-3.7c0-0.3,0-0.6-0.1-0.8c-0.1-0.2-0.2-0.4-0.4-0.6c-0.2-0.2-0.3-0.3-0.6-0.4c-0.2-0.1-0.5-0.1-0.7-0.1
		c-0.3,0-0.5,0-0.7,0.1c-0.2,0.1-0.4,0.2-0.6,0.4c-0.2,0.2-0.3,0.4-0.4,0.6c-0.1,0.2-0.1,0.5-0.1,0.7v3.7h-0.9v-6.2h0.9v0.6
		c0.2-0.3,0.5-0.5,0.8-0.6C80.2,220.8,80.6,220.7,80.9,220.7"/>
	<path class="st1" d="M88.1,226.3c0.3,0,0.6-0.1,0.9-0.2c0.3-0.1,0.5-0.3,0.7-0.5c0.2-0.2,0.4-0.5,0.5-0.7c0.1-0.3,0.2-0.6,0.2-0.9
		c0-0.3-0.1-0.6-0.2-0.9c-0.1-0.3-0.3-0.5-0.5-0.7c-0.2-0.2-0.5-0.4-0.7-0.5c-0.3-0.1-0.6-0.2-0.9-0.2c-0.3,0-0.6,0.1-0.9,0.2
		c-0.3,0.1-0.5,0.3-0.8,0.5c-0.2,0.2-0.4,0.5-0.5,0.7c-0.1,0.3-0.2,0.6-0.2,0.9c0,0.3,0.1,0.6,0.2,0.9c0.1,0.3,0.3,0.5,0.5,0.7
		c0.2,0.2,0.5,0.4,0.8,0.5C87.4,226.3,87.7,226.3,88.1,226.3 M91.4,220.9v5.5c0,0.5-0.1,1-0.3,1.5c-0.2,0.4-0.4,0.8-0.7,1.1
		c-0.3,0.3-0.7,0.5-1.1,0.6c-0.4,0.1-0.9,0.2-1.4,0.2c-0.1,0-0.3,0-0.5,0c-0.2,0-0.4-0.1-0.7-0.1c-0.2-0.1-0.5-0.2-0.7-0.3
		c-0.3-0.1-0.5-0.3-0.7-0.5v-1.1c0.2,0.3,0.5,0.5,0.7,0.6c0.2,0.2,0.4,0.3,0.7,0.4c0.2,0.1,0.4,0.2,0.6,0.2c0.2,0,0.4,0,0.7,0
		c0.4,0,0.7-0.1,1-0.2c0.3-0.1,0.6-0.3,0.8-0.5c0.2-0.2,0.4-0.5,0.5-0.8c0.1-0.3,0.2-0.7,0.2-1.1V226c-0.1,0.2-0.3,0.3-0.4,0.5
		c-0.2,0.1-0.4,0.3-0.6,0.4c-0.2,0.1-0.4,0.2-0.6,0.2c-0.2,0.1-0.5,0.1-0.7,0.1c-0.5,0-0.9-0.1-1.3-0.3c-0.4-0.2-0.8-0.4-1-0.7
		c-0.3-0.3-0.5-0.6-0.7-1c-0.2-0.4-0.3-0.8-0.3-1.3c0-0.5,0.1-0.9,0.3-1.3c0.2-0.4,0.4-0.7,0.7-1c0.3-0.3,0.6-0.5,1-0.7
		c0.4-0.2,0.8-0.2,1.3-0.2c0.2,0,0.5,0,0.7,0.1c0.2,0.1,0.5,0.1,0.7,0.3c0.2,0.1,0.4,0.2,0.6,0.4c0.2,0.1,0.3,0.3,0.4,0.5v-1H91.4z"
		/>
	<path class="st1" d="M94.7,223.4c0.2,0.1,0.4,0.2,0.7,0.3c0.2,0.1,0.5,0.3,0.6,0.4c0.2,0.2,0.4,0.4,0.5,0.6
		c0.1,0.2,0.2,0.5,0.2,0.8c0,0.2,0,0.4-0.1,0.6c-0.1,0.2-0.2,0.4-0.4,0.6c-0.2,0.2-0.4,0.3-0.7,0.4c-0.3,0.1-0.6,0.2-1,0.2
		c-0.3,0-0.6,0-0.8-0.1c-0.2-0.1-0.4-0.1-0.6-0.2c-0.2-0.1-0.4-0.2-0.5-0.3v-1.2c0.1,0.2,0.2,0.3,0.4,0.5c0.2,0.1,0.3,0.2,0.6,0.3
		c0.2,0.1,0.5,0.1,0.9,0.1c0.2,0,0.4,0,0.6-0.1c0.2-0.1,0.3-0.1,0.4-0.2c0.1-0.1,0.2-0.2,0.3-0.3c0.1-0.1,0.1-0.2,0.1-0.3
		c0-0.2,0-0.4-0.1-0.5c-0.1-0.1-0.2-0.3-0.3-0.4c-0.1-0.1-0.3-0.2-0.5-0.3c-0.2-0.1-0.3-0.1-0.5-0.2c-0.6-0.3-1.1-0.6-1.3-0.9
		c-0.3-0.3-0.4-0.6-0.4-1c0-0.2,0-0.4,0.1-0.6c0.1-0.2,0.2-0.4,0.4-0.5c0.2-0.1,0.4-0.3,0.6-0.4c0.2-0.1,0.5-0.1,0.8-0.1h0
		c0.2,0,0.4,0,0.6,0.1c0.2,0,0.4,0.1,0.5,0.1c0.2,0.1,0.3,0.1,0.4,0.2v1.2c-0.1-0.1-0.2-0.2-0.3-0.3c-0.1-0.1-0.2-0.2-0.3-0.2
		c-0.1-0.1-0.3-0.1-0.4-0.2c-0.2,0-0.3-0.1-0.6-0.1c-0.2,0-0.4,0-0.5,0.1c-0.1,0.1-0.3,0.1-0.3,0.2c-0.1,0.1-0.1,0.2-0.2,0.3
		c0,0.1-0.1,0.2-0.1,0.3c0,0.1,0,0.2,0.1,0.3c0.1,0.1,0.2,0.2,0.3,0.3c0.1,0.1,0.2,0.2,0.4,0.2C94.5,223.3,94.6,223.4,94.7,223.4"/>
	<path class="st1" d="M98.7,218.2c0.2,0,0.4,0.1,0.5,0.2c0.1,0.1,0.2,0.3,0.2,0.5c0,0.2-0.1,0.4-0.2,0.5c-0.1,0.1-0.3,0.2-0.5,0.2
		c-0.2,0-0.4-0.1-0.5-0.2c-0.1-0.1-0.2-0.3-0.2-0.5c0-0.2,0.1-0.4,0.2-0.5C98.3,218.3,98.5,218.2,98.7,218.2 M98.2,220.9h0.9v6.3
		h-0.9V220.9z"/>
	<path class="st1" d="M104,220.7c0.4,0,0.7,0.1,1.1,0.2c0.3,0.1,0.6,0.3,0.9,0.5c0.2,0.2,0.4,0.5,0.6,0.9c0.1,0.3,0.2,0.7,0.2,1.1
		v3.7h-0.9v-3.7c0-0.3,0-0.6-0.1-0.8c-0.1-0.2-0.2-0.4-0.4-0.6c-0.2-0.2-0.3-0.3-0.6-0.4c-0.2-0.1-0.5-0.1-0.7-0.1
		c-0.3,0-0.5,0-0.7,0.1c-0.2,0.1-0.4,0.2-0.6,0.4c-0.2,0.2-0.3,0.4-0.4,0.6c-0.1,0.2-0.1,0.5-0.1,0.7v3.7h-0.9v-6.2h0.9v0.6
		c0.2-0.3,0.5-0.5,0.8-0.6C103.3,220.8,103.6,220.7,104,220.7"/>
	<path class="st1" d="M110,223.4c0.2,0.1,0.4,0.2,0.7,0.3c0.2,0.1,0.5,0.3,0.6,0.4c0.2,0.2,0.4,0.4,0.5,0.6c0.1,0.2,0.2,0.5,0.2,0.8
		c0,0.2,0,0.4-0.1,0.6c-0.1,0.2-0.2,0.4-0.4,0.6c-0.2,0.2-0.4,0.3-0.7,0.4c-0.3,0.1-0.6,0.2-1,0.2c-0.3,0-0.6,0-0.8-0.1
		c-0.2-0.1-0.4-0.1-0.6-0.2c-0.2-0.1-0.4-0.2-0.5-0.3v-1.2c0.1,0.2,0.2,0.3,0.4,0.5c0.2,0.1,0.3,0.2,0.6,0.3
		c0.2,0.1,0.5,0.1,0.9,0.1c0.2,0,0.4,0,0.6-0.1c0.2-0.1,0.3-0.1,0.4-0.2c0.1-0.1,0.2-0.2,0.3-0.3c0.1-0.1,0.1-0.2,0.1-0.3
		c0-0.2,0-0.4-0.1-0.5c-0.1-0.1-0.2-0.3-0.3-0.4c-0.1-0.1-0.3-0.2-0.5-0.3c-0.2-0.1-0.3-0.1-0.5-0.2c-0.6-0.3-1.1-0.6-1.3-0.9
		c-0.3-0.3-0.4-0.6-0.4-1c0-0.2,0-0.4,0.1-0.6c0.1-0.2,0.2-0.4,0.4-0.5c0.2-0.1,0.4-0.3,0.6-0.4c0.2-0.1,0.5-0.1,0.8-0.1h0
		c0.2,0,0.4,0,0.6,0.1c0.2,0,0.4,0.1,0.5,0.1c0.2,0.1,0.3,0.1,0.4,0.2v1.2c-0.1-0.1-0.2-0.2-0.3-0.3c-0.1-0.1-0.2-0.2-0.3-0.2
		c-0.1-0.1-0.3-0.1-0.4-0.2c-0.2,0-0.3-0.1-0.6-0.1c-0.2,0-0.4,0-0.5,0.1c-0.1,0.1-0.3,0.1-0.3,0.2c-0.1,0.1-0.1,0.2-0.2,0.3
		c0,0.1-0.1,0.2-0.1,0.3c0,0.1,0,0.2,0.1,0.3c0.1,0.1,0.2,0.2,0.3,0.3c0.1,0.1,0.2,0.2,0.4,0.2C109.8,223.3,109.9,223.4,110,223.4"
		/>
	<path class="st1" d="M116,226.4v0.9c-0.5,0.1-0.8,0.1-1.2,0c-0.3-0.1-0.6-0.2-0.7-0.4c-0.2-0.2-0.3-0.4-0.4-0.7
		c-0.1-0.3-0.1-0.6-0.1-0.9v-3.5h-0.9v-0.9h0.9v-1.6h0.9v1.6h1.4v0.9h-1.4v3.5c0,0.2,0,0.4,0.1,0.5c0,0.2,0.1,0.3,0.2,0.4
		c0.1,0.1,0.3,0.2,0.4,0.2C115.4,226.5,115.7,226.5,116,226.4"/>
	<path class="st1" d="M117.8,218.2c0.2,0,0.4,0.1,0.5,0.2c0.1,0.1,0.2,0.3,0.2,0.5c0,0.2-0.1,0.4-0.2,0.5c-0.1,0.1-0.3,0.2-0.5,0.2
		c-0.2,0-0.4-0.1-0.5-0.2c-0.1-0.1-0.2-0.3-0.2-0.5c0-0.2,0.1-0.4,0.2-0.5C117.4,218.3,117.6,218.2,117.8,218.2 M117.3,220.9h0.9
		v6.3h-0.9V220.9z"/>
	<path class="st1" d="M123,226.4v0.9c-0.5,0.1-0.8,0.1-1.2,0c-0.3-0.1-0.6-0.2-0.7-0.4c-0.2-0.2-0.3-0.4-0.4-0.7
		c-0.1-0.3-0.1-0.6-0.1-0.9v-3.5h-0.9v-0.9h0.9v-1.6h0.9v1.6h1.4v0.9h-1.4v3.5c0,0.2,0,0.4,0.1,0.5c0,0.2,0.1,0.3,0.2,0.4
		c0.1,0.1,0.3,0.2,0.4,0.2C122.5,226.5,122.7,226.5,123,226.4"/>
	<path class="st1" d="M126.8,227.3c-0.4,0-0.7-0.1-1.1-0.2c-0.3-0.1-0.6-0.3-0.9-0.5c-0.2-0.2-0.4-0.5-0.6-0.9
		c-0.1-0.3-0.2-0.7-0.2-1.2v-3.7h0.9v3.7c0,0.6,0.2,1.1,0.5,1.4c0.3,0.3,0.8,0.5,1.3,0.5c0.3,0,0.5,0,0.7-0.1
		c0.2-0.1,0.4-0.2,0.6-0.4c0.2-0.2,0.3-0.4,0.4-0.6c0.1-0.2,0.1-0.5,0.1-0.7v-3.7h0.9v6.3h-0.9v-0.6c-0.2,0.3-0.5,0.5-0.8,0.6
		C127.4,227.3,127.1,227.3,126.8,227.3"/>
	<path class="st1" d="M134,226.4v0.9c-0.5,0.1-0.8,0.1-1.2,0c-0.3-0.1-0.6-0.2-0.7-0.4c-0.2-0.2-0.3-0.4-0.4-0.7
		c-0.1-0.3-0.1-0.6-0.1-0.9v-3.5h-0.9v-0.9h0.9v-1.6h0.9v1.6h1.4v0.9h-1.4v3.5c0,0.2,0,0.4,0.1,0.5c0,0.2,0.1,0.3,0.2,0.4
		c0.1,0.1,0.3,0.2,0.4,0.2C133.5,226.5,133.7,226.5,134,226.4"/>
</g>
</svg>
