<?xml version="1.0" encoding="utf-8"?>
<!-- Generator: Adobe Illustrator 28.2.0, SVG Export Plug-In . SVG Version: 6.00 Build 0)  -->
<svg version="1.1" id="Layer_1" xmlns="http://www.w3.org/2000/svg" xmlns:xlink="http://www.w3.org/1999/xlink" x="0px" y="0px"
	 viewBox="0 0 100 100" style="enable-background:new 0 0 100 100;" xml:space="preserve">
<style type="text/css">
	.st0{fill:#FFFFFF;}
</style>
<path class="st0" d="M100,41.9h-3.6L91,44.8c-0.6-0.3-1.2-0.6-1.9-0.8l-6.8-1.7v-0.8c3-2.1,4.8-5.6,4.8-9.3v-2.8
	c0-6.3-4.9-11.5-10.9-11.7c-0.3,0-0.6,0-0.9,0l1.8-4.1l-8.5-8.5l-5,3.3c-1.9-1.1-3.9-1.9-6-2.5L56.1,0H43.9l-1.2,5.9
	c-2.1,0.6-4.1,1.4-6,2.5l-5-3.3L23,13.6l1.7,4.1c-0.1,0-0.1,0-0.2,0c-3.1-0.1-6,1-8.2,3.2c-2.2,2.1-3.4,5-3.4,8.1v3.2
	c0,3.7,1.8,7.2,4.8,9.3v0.8l-4.4,1.1l-8-4.7H0v33.4l15.9,5.3H19l0.4-1.4l4.9,2.9c0.1,2.6,2.2,4.8,4.8,4.9c0.1,2.6,2.2,4.7,4.8,4.8
	c0.1,2.6,2.2,4.7,4.8,4.8c0.1,2.7,2.3,4.9,5,4.9c1,0,2-0.3,2.8-0.9l1.4,1.3c0.9,0.8,2,1.2,3.2,1.2h0.3c2.7,0,4.9-2.2,4.9-4.8
	c2.7,0,4.8-2.2,4.8-4.8c2.7,0,4.8-2.2,4.8-4.8c2.7-0.1,4.8-2.3,4.8-4.9c0-0.2,0-0.3,0-0.5L100,65.5V41.9z M83.9,29.4v2.8
	c0,2.9-1.5,5.5-4,7L79,39.7l0,5.1l8.1,2l-17.7,9.3v-4.3c0-2.2-0.9-4.2-2.3-5.6l5.5-1.4v-5.1l-0.8-0.5c-2.5-1.4-4-4.1-4-7V29
	c0-2.2,0.9-4.3,2.5-5.8c1.6-1.5,3.7-2.4,5.9-2.3C80.4,21.1,83.9,24.9,83.9,29.4z M52.4,54.9l-7.3-2.3c-3.3-1.1-6.9-1.2-10.3-0.5
	l-0.9,0.2v-0.5c0-2.2,1.5-4.2,3.7-4.7l9.2-2.3v-5.1L46,39.2c-2.5-1.4-4-4.1-4-7V29c0-2.2,0.9-4.3,2.5-5.8c1.6-1.5,3.7-2.4,5.9-2.3
	c4.3,0.1,7.8,3.9,7.8,8.5v2.8c0,2.9-1.5,5.5-4,7l-0.8,0.5l0,5.1l9.2,2.3c2.2,0.5,3.7,2.5,3.7,4.7v6l-0.4,0.2h-1l-9.9-2.8
	C54,55,53.2,54.9,52.4,54.9z M34.2,24.1c3-5.9,9.1-9.6,15.8-9.6c6.6,0,12.6,3.7,15.7,9.5c-0.8,1.5-1.2,3.2-1.2,5v3.2
	c0,3.7,1.8,7.2,4.8,9.3v0.8l-6.5,1.6l-6.5-1.6v-0.8c3-2.1,4.8-5.6,4.8-9.3v-2.8c0-6.3-4.9-11.5-10.9-11.7c-3.1-0.1-6,1-8.2,3.2
	c-2.2,2.1-3.4,5-3.4,8.1v3.2c0,3.7,1.8,7.2,4.8,9.3v0.8l-6.5,1.6l-6.5-1.6v-0.8c3-2.1,4.8-5.6,4.8-9.3v-2.8
	C35.5,27.5,35,25.7,34.2,24.1z M26.8,14.4L32,9.2l4.5,3l0.9-0.5c2.2-1.3,4.5-2.3,7-2.9l1-0.2l1.1-5.3h7.1l1.1,5.3l1,0.2
	c2.5,0.6,4.8,1.6,7,2.9l0.9,0.5l4.5-3l5.1,5.1l-1.8,4.3c-1.2,0.5-2.4,1.3-3.4,2.3c-0.1,0.1-0.1,0.1-0.2,0.2
	c-3.8-6-10.5-9.8-17.8-9.8c-7.3,0-14,3.8-17.8,9.9c-1-1.1-2.2-1.9-3.6-2.5L26.8,14.4z M21,44.8v-5.1l-0.8-0.5c-2.5-1.4-4-4.1-4-7V29
	c0-2.2,0.9-4.3,2.5-5.8c1.6-1.5,3.7-2.4,5.9-2.3c4.3,0.1,7.8,3.9,7.8,8.5v2.8c0,2.9-1.5,5.5-4,7l-0.8,0.5l0,5.1l5.5,1.4
	c-1.4,1.5-2.3,3.5-2.3,5.6V53l-5,1.1l0.1-0.5l0.1-3l-8.5-5L21,44.8z M3.2,41.9h1.2L16,48.7l-5.9,23.4l-6.9-2.3V41.9z M16.4,74.2
	l-3.2-1.1l5.7-22.7l3.7,2.1V53l-6.1,21.2H16.4z M27.4,78.8c0-0.5,0.2-0.9,0.5-1.3l2.8-2.8c0.3-0.3,0.8-0.5,1.3-0.5
	c1,0,1.8,0.8,1.8,1.8c0,0.5-0.2,0.9-0.5,1.3l-2.8,2.8c-0.3,0.3-0.8,0.5-1.3,0.5C28.2,80.6,27.4,79.8,27.4,78.8z M32.3,83.7
	c0-0.5,0.2-0.9,0.5-1.3l2.8-2.8c0.3-0.3,0.8-0.5,1.3-0.5c1,0,1.8,0.8,1.8,1.8c0,0.5-0.2,0.9-0.5,1.3L35.3,85
	c-0.3,0.3-0.8,0.5-1.3,0.5C33.1,85.5,32.3,84.7,32.3,83.7z M37.1,88.5c0-0.5,0.2-0.9,0.5-1.3l2.8-2.8c0.3-0.3,0.8-0.5,1.3-0.5
	c1,0,1.8,0.8,1.8,1.8c0,0.5-0.2,0.9-0.5,1.3l-2.8,2.8c-0.3,0.3-0.8,0.5-1.3,0.5C37.9,90.3,37.1,89.5,37.1,88.5z M43.7,95.2
	c-1,0-1.8-0.8-1.8-1.8c0-0.5,0.2-0.9,0.5-1.3l2.8-2.8c0.3-0.3,0.8-0.5,1.3-0.5c1,0,1.8,0.8,1.8,1.8c0,0.5-0.2,0.9-0.5,1.3L45,94.6
	C44.7,95,44.2,95.2,43.7,95.2z M51.5,96.8h-0.3c-0.4,0-0.8-0.1-1.1-0.4l-1.2-1.1l1.2-1.2c0.4-0.4,0.8-0.9,1-1.5l1.5,1.2
	c0.4,0.3,0.6,0.8,0.6,1.3C53.2,96,52.5,96.8,51.5,96.8z M66,82.3h-0.3c-0.4,0-0.8-0.1-1.1-0.4l-8.7-7.3L53.8,77l8.5,7.1
	c0.4,0.3,0.6,0.8,0.6,1.3c0,0.9-0.8,1.7-1.7,1.7h-0.4c-0.4,0-0.8-0.1-1.1-0.4L51,79.4L49,81.9l8.5,7.1c0.4,0.3,0.6,0.8,0.6,1.3
	c0,0.9-0.8,1.7-1.7,1.7c-0.6,0-1.2-0.2-1.7-0.6l-3.6-3c-0.8-1.6-2.4-2.8-4.3-2.8c-0.1-2.6-2.2-4.7-4.8-4.8c-0.1-2.6-2.2-4.7-4.8-4.8
	c-0.1-2.7-2.3-4.9-5-4.9c-1.3,0-2.6,0.5-3.6,1.5l-2.8,2.8c-0.2,0.2-0.3,0.4-0.5,0.6l-5-3l4.3-15.2l10.9-2.4c2.9-0.6,5.9-0.5,8.7,0.4
	l2.4,0.8l-8.1,4c-1.8,0.9-3,2.8-3,4.8v0.3c0,3,2.4,5.4,5.4,5.4c1,0,1.9-0.3,2.8-0.8l6-3.6c1.2-0.7,2.8-0.6,3.9,0.4l13.6,12.3
	c0.4,0.3,0.6,0.8,0.6,1.3C67.7,81.5,67,82.3,66,82.3z M96.8,63.5L69.6,77.1c-0.1-0.1-0.2-0.2-0.3-0.3L55.7,64.6
	c-1.2-1.1-2.7-1.7-4.3-1.7c-1.2,0-2.3,0.3-3.3,0.9l-6,3.6c-0.3,0.2-0.7,0.3-1.1,0.3c-1.2,0-2.2-1-2.2-2.2v-0.3
	c0-0.8,0.5-1.6,1.2-1.9l9-4.5c1.5-0.8,3.4-0.9,5-0.5l10.1,2.9l2.5,0.1l30.2-15.9V63.5z"/>
</svg>
