<?xml version="1.0" encoding="utf-8"?>
<!-- Generator: Adobe Illustrator 28.2.0, SVG Export Plug-In . SVG Version: 6.00 Build 0)  -->
<svg version="1.1" id="Layer_1" xmlns="http://www.w3.org/2000/svg" xmlns:xlink="http://www.w3.org/1999/xlink" x="0px" y="0px"
	 viewBox="0 0 100 100" style="enable-background:new 0 0 100 100;" xml:space="preserve">
<style type="text/css">
	.st0{fill:#FFFFFF;}
</style>
<g>
	<path class="st0" d="M97.8,71.6c-0.9,0-1.5-0.7-1.5-1.5c0,0,0,0,0,0c0-2.6-2.1-4.6-4.6-4.6c-0.9,0-1.5-0.7-1.5-1.5
		c0-0.9,0.7-1.5,1.5-1.5c4.3,0,7.7,3.5,7.7,7.7C99.3,70.9,98.7,71.6,97.8,71.6C97.8,71.6,97.8,71.6,97.8,71.6z"/>
	<path class="st0" d="M91.6,65.4H76.2c-0.9,0-1.5-0.7-1.5-1.5c0-0.9,0.7-1.5,1.5-1.5h15.4c0.9,0,1.5,0.7,1.5,1.5
		C93.2,64.7,92.5,65.4,91.6,65.4z"/>
	<path class="st0" d="M97.8,80.8c-0.9,0-1.5-0.7-1.5-1.5c0,0,0,0,0,0v-3.1h-4.6c-0.9,0-1.5-0.7-1.5-1.5s0.7-1.5,1.5-1.5h6.2
		c0.9,0,1.5,0.7,1.5,1.5c0,0,0,0,0,0v4.6C99.3,80.1,98.7,80.8,97.8,80.8C97.8,80.8,97.8,80.8,97.8,80.8z"/>
	<path class="st0" d="M76.2,65.4c-0.3,0-0.6-0.1-0.9-0.3L59.8,54.4c-0.7-0.5-0.9-1.4-0.4-2.1c0.5-0.7,1.4-0.9,2.1-0.4c0,0,0,0,0,0
		l15.5,10.8c0.7,0.5,0.9,1.4,0.4,2.1C77.2,65.2,76.7,65.4,76.2,65.4z"/>
	<path class="st0" d="M60.6,54.6H11.4c-0.9,0-1.5-0.7-1.5-1.5s0.7-1.5,1.5-1.5h49.2c0.9,0,1.5,0.7,1.5,1.5S61.5,54.6,60.6,54.6
		L60.6,54.6z"/>
	<path class="st0" d="M5.3,62.3c-0.9,0-1.5-0.7-1.5-1.5c0-0.3,0.1-0.7,0.3-1l6.2-7.7c0.5-0.7,1.5-0.8,2.2-0.2
		c0.7,0.5,0.8,1.5,0.2,2.2l-6.2,7.7C6.2,62.1,5.8,62.3,5.3,62.3z"/>
	<path class="st0" d="M5.3,65.4c-0.9,0-1.5-0.7-1.5-1.5c0,0,0,0,0,0v-3.1c0-0.9,0.7-1.5,1.5-1.5s1.5,0.7,1.5,1.5v3.1
		C6.8,64.7,6.1,65.4,5.3,65.4C5.3,65.4,5.3,65.4,5.3,65.4z"/>
	<path class="st0" d="M2.2,71.6c-0.9,0-1.5-0.7-1.5-1.5c0-0.2,0.1-0.5,0.2-0.7l3.1-6.2c0.4-0.8,1.3-1.1,2.1-0.7
		c0.8,0.4,1.1,1.3,0.7,2.1l-3.1,6.2C3.3,71.3,2.8,71.6,2.2,71.6z"/>
	<path class="st0" d="M2.2,80.8c-0.9,0-1.5-0.7-1.5-1.5c0,0,0,0,0,0V70c0-0.9,0.7-1.5,1.5-1.5s1.5,0.7,1.5,1.5v9.2
		C3.7,80.1,3.1,80.8,2.2,80.8C2.2,80.8,2.2,80.8,2.2,80.8z"/>
	<path class="st0" d="M56.2,65.4c-0.9,0-1.5-0.7-1.5-1.5c0,0,0,0,0,0V53.1c0-0.9,0.7-1.5,1.5-1.5s1.5,0.7,1.5,1.5v10.8
		C57.7,64.7,57,65.4,56.2,65.4C56.2,65.4,56.2,65.4,56.2,65.4z"/>
	<path class="st0" d="M40.7,65.4c-0.9,0-1.5-0.7-1.5-1.5c0,0,0,0,0,0V53.1c0-0.9,0.7-1.5,1.5-1.5s1.5,0.7,1.5,1.5v10.8
		C42.3,64.7,41.6,65.4,40.7,65.4C40.7,65.4,40.7,65.4,40.7,65.4z"/>
	<path class="st0" d="M97.8,76.2c-0.9,0-1.5-0.7-1.5-1.5c0,0,0,0,0,0V70c0-0.9,0.7-1.5,1.5-1.5c0.8,0,1.5,0.7,1.5,1.5v4.6
		C99.3,75.5,98.7,76.2,97.8,76.2C97.8,76.2,97.8,76.2,97.8,76.2z"/>
	<path class="st0" d="M20.7,87c-4.3,0-7.7-3.5-7.7-7.7c0-4.3,3.5-7.7,7.7-7.7s7.7,3.5,7.7,7.7C28.4,83.5,25,87,20.7,87z M20.7,74.7
		c-2.6,0-4.6,2.1-4.6,4.6s2.1,4.6,4.6,4.6s4.6-2.1,4.6-4.6C25.3,76.7,23.3,74.7,20.7,74.7z"/>
	<path class="st0" d="M20.7,87c-4.3,0-7.7-3.5-7.7-7.7c0-4.3,3.5-7.7,7.7-7.7s7.7,3.5,7.7,7.7C28.4,83.5,25,87,20.7,87z M20.7,74.7
		c-2.6,0-4.6,2.1-4.6,4.6s2.1,4.6,4.6,4.6s4.6-2.1,4.6-4.6C25.3,76.7,23.3,74.7,20.7,74.7z"/>
	<path class="st0" d="M76.2,87c-4.3,0-7.7-3.5-7.7-7.7c0-4.3,3.5-7.7,7.7-7.7c4.3,0,7.7,3.5,7.7,7.7C83.9,83.5,80.4,87,76.2,87z
		 M76.2,74.7c-2.6,0-4.6,2.1-4.6,4.6s2.1,4.6,4.6,4.6s4.6-2.1,4.6-4.6C80.8,76.7,78.7,74.7,76.2,74.7z"/>
	<path class="st0" d="M14.5,80.8H2.2c-0.9,0-1.5-0.7-1.5-1.5s0.7-1.5,1.5-1.5h12.3c0.9,0,1.5,0.7,1.5,1.5S15.4,80.8,14.5,80.8z"/>
	<path class="st0" d="M70,80.8H26.9c-0.9,0-1.5-0.7-1.5-1.5s0.7-1.5,1.5-1.5H70c0.9,0,1.5,0.7,1.5,1.5S70.9,80.8,70,80.8z"/>
	<path class="st0" d="M97.8,80.8H82.4c-0.9,0-1.5-0.7-1.5-1.5s0.7-1.5,1.5-1.5h15.4c0.9,0,1.5,0.7,1.5,1.5S98.7,80.8,97.8,80.8z"/>
	<path class="st0" d="M76.2,65.4H40.7c-0.9,0-1.5-0.7-1.5-1.5c0-0.9,0.7-1.5,1.5-1.5h35.4c0.9,0,1.5,0.7,1.5,1.5
		C77.7,64.7,77,65.4,76.2,65.4z"/>
	<path class="st0" d="M26.9,65.4H5.3c-0.9,0-1.5-0.7-1.5-1.5s0.7-1.5,1.5-1.5h21.6c0.9,0,1.5,0.7,1.5,1.5S27.7,65.4,26.9,65.4z"/>
	<path class="st0" d="M59.2,70h-1.5c-0.9,0-1.5-0.7-1.5-1.5s0.7-1.5,1.5-1.5h1.5c0.9,0,1.5,0.7,1.5,1.5S60.1,70,59.2,70z"/>
	<path class="st0" d="M43.8,70h-1.5c-0.9,0-1.5-0.7-1.5-1.5s0.7-1.5,1.5-1.5h1.5c0.9,0,1.5,0.7,1.5,1.5S44.7,70,43.8,70z"/>
	<path class="st0" d="M76.2,80.8c-0.9,0-1.5-0.7-1.5-1.5s0.7-1.5,1.5-1.5h0c0.9,0,1.5,0.7,1.5,1.5S77.1,80.8,76.2,80.8z"/>
	<path class="st0" d="M20.7,80.8c-0.9,0-1.5-0.7-1.5-1.5c0-0.9,0.7-1.5,1.5-1.5h0c0.9,0,1.5,0.7,1.5,1.5S21.6,80.8,20.7,80.8z"/>
	<g>
		<path class="st0" d="M65.4,34.6H25.3c-0.9,0-1.5-0.7-1.5-1.5c0,0,0,0,0,0V19.2c0-0.9,0.7-1.5,1.5-1.5c0,0,0,0,0,0h40.1
			c0.9,0,1.5,0.7,1.5,1.5c0,0,0,0,0,0v13.9C66.9,33.9,66.2,34.6,65.4,34.6C65.4,34.6,65.4,34.6,65.4,34.6z M26.9,31.5h37V20.7h-37
			L26.9,31.5z"/>
		<path class="st0" d="M74.6,34.6h-9.2c-0.9,0-1.5-0.7-1.5-1.5c0,0,0,0,0,0V19.2c0-0.9,0.7-1.5,1.5-1.5c0,0,0,0,0,0h9.2
			c0.9,0,1.5,0.7,1.5,1.5c0,0,0,0,0,0V33C76.2,33.9,75.5,34.6,74.6,34.6C74.6,34.6,74.6,34.6,74.6,34.6z M66.9,31.5h6.2V20.7h-6.2
			V31.5z"/>
		<path class="st0" d="M59.2,28.4H31.5c-0.9,0-1.5-0.7-1.5-1.5s0.7-1.5,1.5-1.5h27.7c0.9,0,1.5,0.7,1.5,1.5S60.1,28.4,59.2,28.4z"/>
		<path class="st0" d="M31.5,28.4c-0.9,0-1.5-0.7-1.5-1.5c0,0,0,0,0,0v-1.5c0-0.9,0.7-1.5,1.5-1.5s1.5,0.7,1.5,1.5v1.5
			C33,27.7,32.3,28.4,31.5,28.4C31.5,28.4,31.5,28.4,31.5,28.4z"/>
		<path class="st0" d="M59.2,28.4c-0.9,0-1.5-0.7-1.5-1.5c0,0,0,0,0,0v-1.5c0-0.9,0.7-1.5,1.5-1.5c0.9,0,1.5,0.7,1.5,1.5v1.5
			C60.8,27.7,60.1,28.4,59.2,28.4C59.2,28.4,59.2,28.4,59.2,28.4z"/>
		<path class="st0" d="M25.3,20.7c-0.9,0-1.5-0.7-1.5-1.5c0-0.3,0.1-0.6,0.3-0.9l3.1-4.6c0.5-0.7,1.4-0.9,2.1-0.4
			c0.7,0.5,0.9,1.4,0.4,2.1c0,0,0,0,0,0L26.6,20C26.3,20.5,25.8,20.7,25.3,20.7z"/>
		<path class="st0" d="M74.6,20.7c-0.5,0-1-0.3-1.3-0.7l-3.1-4.6c-0.5-0.7-0.3-1.7,0.4-2.1c0.7-0.5,1.7-0.3,2.1,0.4l3.1,4.6
			c0.5,0.7,0.3,1.7-0.4,2.1c0,0,0,0,0,0C75.2,20.6,74.9,20.7,74.6,20.7z"/>
		<path class="st0" d="M65.4,20.7c-0.5,0-1-0.3-1.3-0.7L61,15.4c-0.5-0.7-0.3-1.7,0.4-2.1c0.7-0.5,1.7-0.3,2.1,0.4l3.1,4.6
			c0.5,0.7,0.3,1.7-0.4,2.1c0,0,0,0,0,0C66,20.6,65.7,20.7,65.4,20.7z"/>
		<path class="st0" d="M71.6,16.1H28.4c-0.9,0-1.5-0.7-1.5-1.5s0.7-1.5,1.5-1.5h43.2c0.9,0,1.5,0.7,1.5,1.5S72.4,16.1,71.6,16.1z"/>
	</g>
	<g>
		<path class="st0" d="M50,48.5c-0.9,0-1.5-0.7-1.5-1.5c0,0,0,0,0,0v-9.3c0-0.9,0.7-1.5,1.5-1.5s1.5,0.7,1.5,1.5v9.3
			C51.5,47.8,50.8,48.5,50,48.5C50,48.5,50,48.5,50,48.5z"/>
		<path class="st0" d="M50,48.5c-0.9,0-1.5-0.7-1.5-1.5c0-0.4,0.2-0.8,0.5-1.1l3.1-3.1c0.6-0.6,1.6-0.6,2.2,0c0.6,0.6,0.6,1.6,0,2.2
			L51.1,48C50.8,48.3,50.4,48.5,50,48.5z"/>
		<path class="st0" d="M50,48.5c-0.4,0-0.8-0.2-1.1-0.5l-3.1-3.1c-0.6-0.6-0.6-1.6,0-2.2c0.6-0.6,1.6-0.6,2.2,0l3.1,3.1
			c0.6,0.6,0.6,1.6,0,2.2C50.8,48.3,50.4,48.5,50,48.5L50,48.5z"/>
		<path class="st0" d="M62.3,48.5c-0.9,0-1.5-0.7-1.5-1.5c0,0,0,0,0,0v-9.3c0-0.9,0.7-1.5,1.5-1.5s1.5,0.7,1.5,1.5v9.3
			C63.9,47.8,63.2,48.5,62.3,48.5C62.3,48.5,62.3,48.5,62.3,48.5z"/>
		<path class="st0" d="M62.3,48.5c-0.9,0-1.5-0.7-1.5-1.5c0-0.4,0.2-0.8,0.5-1.1l3.1-3.1c0.6-0.6,1.6-0.6,2.2,0
			c0.6,0.6,0.6,1.6,0,2.2L63.4,48C63.1,48.3,62.7,48.5,62.3,48.5z"/>
		<path class="st0" d="M62.3,48.5c-0.4,0-0.8-0.2-1.1-0.5l-3.1-3.1c-0.6-0.6-0.6-1.6,0-2.2c0.6-0.6,1.6-0.6,2.2,0l3.1,3.1
			c0.6,0.6,0.6,1.6,0,2.2C63.1,48.3,62.7,48.5,62.3,48.5L62.3,48.5z"/>
		<path class="st0" d="M37.7,48.5c-0.9,0-1.5-0.7-1.5-1.5c0,0,0,0,0,0v-9.3c0-0.9,0.7-1.5,1.5-1.5s1.5,0.7,1.5,1.5v9.3
			C39.2,47.8,38.5,48.5,37.7,48.5C37.7,48.5,37.7,48.5,37.7,48.5z"/>
		<path class="st0" d="M37.7,48.5c-0.9,0-1.5-0.7-1.5-1.5c0-0.4,0.2-0.8,0.5-1.1l3.1-3.1c0.6-0.6,1.6-0.6,2.2,0
			c0.6,0.6,0.6,1.6,0,2.2L38.7,48C38.5,48.3,38.1,48.5,37.7,48.5z"/>
		<path class="st0" d="M37.7,48.5c-0.4,0-0.8-0.2-1.1-0.5l-3.1-3.1c-0.6-0.6-0.6-1.6,0-2.2s1.6-0.6,2.2,0l3.1,3.1
			c0.6,0.6,0.6,1.6,0,2.2C38.5,48.3,38.1,48.5,37.7,48.5L37.7,48.5z"/>
	</g>
</g>
</svg>
