<?xml version="1.0" encoding="utf-8"?>
<!-- Generator: Adobe Illustrator 28.2.0, SVG Export Plug-In . SVG Version: 6.00 Build 0)  -->
<svg version="1.1" id="Layer_1" xmlns="http://www.w3.org/2000/svg" xmlns:xlink="http://www.w3.org/1999/xlink" x="0px" y="0px"
	 viewBox="0 0 100 100" style="enable-background:new 0 0 100 100;" xml:space="preserve">
<style type="text/css">
	.st0{clip-path:url(#SVGID_00000060021537723141832380000013626743423337680311_);}
	.st1{fill:none;stroke:#FFFFFF;stroke-width:3.8455;stroke-linecap:round;stroke-linejoin:round;stroke-miterlimit:13.3333;}
	.st2{fill:#FFFFFF;}
</style>
<g id="g1995" transform="matrix(1.3333333,0,0,-1.3333333,0,682.66667)">
	<g id="g1997">
		<g>
			<defs>
				<rect id="SVGID_1_" x="-11.7" y="425.3" width="98.4" height="98.4"/>
			</defs>
			<clipPath id="SVGID_00000025418480183936163330000016142655903605611656_">
				<use xlink:href="#SVGID_1_"  style="overflow:visible;"/>
			</clipPath>
			<g id="g1999" style="clip-path:url(#SVGID_00000025418480183936163330000016142655903605611656_);">
				<g id="g2005" transform="translate(168.6675,444.7349)">
					<path id="path2007" class="st1" d="M-143.8,57c-6.8-2.4-11.6-8.9-11.6-16.6V16.5h35.2v23.9c0,7.3-4.5,13.6-10.8,16.2"/>
				</g>
				<g id="g2009" transform="translate(442.8262,290.7651)">
					<path id="path2011" class="st1" d="M-378.4,188.7l-5.5,2.1l-8.1-21.6l5.5-2.1L-378.4,188.7z"/>
				</g>
				<g id="g2013" transform="translate(452.5879,346.417)">
					<path id="path2015" class="st1" d="M-386.7,141.1l-2.7,1c-2.3,0.9-4.8-0.3-5.7-2.6l-1.3-3.4l10.9-4.1l1.3,3.4
						C-383.3,137.7-384.5,140.3-386.7,141.1z"/>
				</g>
				<g id="g2017" transform="translate(413.4062,10.0586)">
					<path id="path2019" class="st1" d="M-353.2,429c0,5.5-4.4,9.9-9.9,9.9c-1.5,0-2.9-0.3-4.1-0.9c-2,5.3-7.1,9-13.1,9
						c-6,0-11.1-3.7-13.1-9c-1.3,0.6-2.7,0.9-4.1,0.9c-5.5,0-9.9-4.4-9.9-9.9H-353.2z"/>
				</g>
				<g id="g2033" transform="translate(382,245.9687)">
					<path id="path2035" class="st1" d="M-326.3,227.1v12.1c0,13.7-11.1,24.8-24.8,24.8s-24.8-11.1-24.8-24.8V208h18.4"/>
				</g>
				<g id="g2037" transform="translate(413.4062,10.0581)">
					<path id="path2039" class="st1" d="M-353.2,429h10.6c1.4,2,2.2,4.4,2.2,6.9c0,6.8-5.5,12.3-12.3,12.3c-1.4,0-2.7-0.2-3.9-0.6"
						/>
				</g>
				<g id="g2041" transform="translate(165.7095,113.9414)">
					<path id="path2043" class="st1" d="M-141.2,340.1h-22.5v-6.9h8.2"/>
				</g>
				<g id="g2045" transform="translate(293.3105,107.2549)">
					<path id="path2047" class="st1" d="M-250.4,345.8l1.4,3.7c1,2.8,4.1,4.1,6.9,3.1l4.8-1.8c2.8-1,4.1-4.1,3.1-6.9l-1.9-5"/>
				</g>
				<g id="g2049" transform="translate(213.0864,451.9414)">
					<path id="path2051" class="st1" d="M-181.8,50.8L-181.8,50.8"/>
				</g>
			</g>
		</g>
	</g>
</g>
<g id="g837" transform="translate(474.63 154.66)">
	<g id="g835" transform="translate(.52916 -.52917)">
		<path id="path831" class="st2" d="M-434.1-131.3c-5.5,0.1-10,4.6-10,10.2c0,5.6,4.6,10.2,10.2,10.2c2.6,0,5-1,6.8-2.6
			c-1.3,0.7-2.7,1.1-4.3,1.1c-4.8,0-8.7-3.9-8.7-8.7c0-4.8,3.9-8.7,8.7-8.7c1.6,0,3.1,0.4,4.3,1.2c-1.8-1.6-4.2-2.7-6.8-2.7
			C-434-131.3-434-131.3-434.1-131.3L-434.1-131.3z"/>
		<path id="path833" class="st2" d="M-420.6-121.1l-8.7,2.8l5.4-7.4v9.2l-5.4-7.4L-420.6-121.1z"/>
	</g>
</g>
</svg>
