<?xml version="1.0" encoding="utf-8"?>
<!-- Generator: Adobe Illustrator 28.2.0, SVG Export Plug-In . SVG Version: 6.00 Build 0)  -->
<svg version="1.1" id="Layer_1" xmlns="http://www.w3.org/2000/svg" xmlns:xlink="http://www.w3.org/1999/xlink" x="0px" y="0px"
	 viewBox="0 0 100 100" style="enable-background:new 0 0 100 100;" xml:space="preserve">
<style type="text/css">
	.st0{fill:#FFFFFF;}
</style>
<path class="st0" d="M88.6,51.6c0-2.3-0.2-4.5-0.6-6.8l-3.2,0.6C87.2,59.1,81.5,73,70.1,81l-2.6-4.3c-0.9-1.4-1-3.2-0.2-4.7l0.7-1.5
	c0.3-0.6,0.8-0.9,1.5-0.9h2.3c2,0,3.8-1.2,4.5-3.1l2.2-5.5c0.2-0.6,0.4-1.2,0.4-1.8v-3.6c0-0.9-0.3-1.7-1-2.3l-2-2
	c-1-1-2.5-1.2-3.8-0.6l-4,2c-0.5,0.2-1,0.2-1.5,0l-6.5-3.3c-0.6-0.3-0.9-0.8-0.9-1.5v-4.5c0-1.8-1.5-3.3-3.3-3.3
	c-0.9,0-1.6-0.7-1.6-1.6V37c0-0.5,0.2-1,0.7-1.3l5.2-3.9l-2-2.6L53.1,33c-1.2,0.9-2,2.4-2,3.9v1.6c0,2.7,2.2,4.9,4.9,4.9V48
	c0,1.9,1,3.6,2.7,4.4l6.5,3.3c1.4,0.7,3,0.7,4.4,0l4-2l2,2v3.6c0,0.2,0,0.4-0.1,0.6l-2.2,5.5c-0.2,0.6-0.8,1-1.5,1h-2.3
	c-1.9,0-3.6,1-4.4,2.7l-0.7,1.5c-1.3,2.5-1.1,5.5,0.3,7.9l2.7,4.3c-10,5.8-22.3,6.3-32.8,1.5l2-1.3c0.3-0.2,0.6-0.3,0.9-0.3h4.2
	c1.3,0,2.5-0.5,3.5-1.4l4.6-4.6c0.9-0.9,1.4-2.2,1.4-3.5v-7.5c0-0.9-0.2-1.8-0.7-2.5l-3.5-5.8c-0.9-1.5-2.5-2.3-4.2-2.3h-4.6
	c-1.6,0-3.2,0.8-4.1,2.2l-1.8,2.7h-4c-1.8,0-3.3,1.5-3.3,3.3v3.1c0,0.6-0.3,1.1-0.7,1.4l-5.1,3.3c-3.6-5.7-5.6-12.4-5.6-19.2
	c0-0.5,0-1.1,0-1.6h2.8c0.6,0,1.2,0.3,1.5,0.9l1.9,3.8c0.6,1.1,1.7,1.8,2.9,1.8h1.7c1,0,2-0.5,2.6-1.3c0.6-0.8,0.8-1.9,0.5-2.9
	l-2.1-7.3h3.2c1.1,0,2.2-0.4,3.1-1.1l5.3-4.3c1.7-1.4,2.3-3.7,1.4-5.7l-2.8-6.5c-0.3-0.8,0-1.6,0.7-2l4.1-2.5
	c1.5-0.9,2.4-2.5,2.4-4.3l0-2.4c5.3-1,10.7-0.8,15.8,0.6l0.8-3.1c-16.2-4.3-33.4,2.1-42.7,16.1s-8.7,32.3,1.5,45.6
	c10.2,13.3,27.8,18.6,43.6,13.2S88.6,68.4,88.6,51.6z M39.7,17.1l0,1.7c0,0.6-0.3,1.1-0.8,1.4l-4.1,2.5c-2.1,1.3-2.9,3.9-2,6.1
	l2.8,6.5c0.3,0.7,0.1,1.5-0.5,1.9l-5.3,4.3c-0.3,0.2-0.6,0.4-1,0.3h-3.2c-1,0-2,0.5-2.6,1.3C22.3,44,22.1,45,22.4,46l2.1,7.3h-1.7
	l-1.9-3.8c-0.8-1.7-2.5-2.7-4.4-2.7h-2.5C15.9,32.7,26,21.1,39.7,17.1z M21.1,73.5l5-3.2c1.4-0.9,2.2-2.4,2.2-4.1V63h4
	c1.1,0,2.1-0.5,2.7-1.5l1.8-2.7c0.3-0.5,0.8-0.7,1.4-0.7h4.6c0.6,0,1.1,0.3,1.4,0.8l3.5,5.8c0.2,0.3,0.2,0.5,0.2,0.8v7.5
	c0,0.4-0.2,0.8-0.5,1.2l-4.6,4.6c-0.3,0.3-0.7,0.5-1.2,0.5h-4.2c-1,0-1.9,0.3-2.7,0.8l-3.5,2.3C27.3,80.2,23.8,77.1,21.1,73.5z"/>
<path class="st0" d="M3.9,53.2l-3.3,0.2c0.1,1.1,0.2,2.2,0.3,3.3l3.2-0.4C4.1,55.3,4,54.2,3.9,53.2z"/>
<path class="st0" d="M8.9,29.1L6,27.6c-0.5,1-1,2-1.4,3l3,1.3C8,31,8.4,30,8.9,29.1z"/>
<path class="st0" d="M4.8,59.4l-3.2,0.7c0.2,1.1,0.5,2.2,0.8,3.2l3.1-0.9C5.2,61.4,5,60.4,4.8,59.4z"/>
<path class="st0" d="M4.7,40.8l-3.2-0.7c-0.2,1.1-0.4,2.2-0.6,3.3l3.2,0.4C4.4,42.9,4.5,41.8,4.7,40.8z"/>
<path class="st0" d="M12.1,23.8l-2.7-1.9c-0.6,0.9-1.3,1.8-1.8,2.8l2.8,1.7C10.9,25.5,11.5,24.6,12.1,23.8z"/>
<path class="st0" d="M6.4,34.8l-3.1-1.1c-0.4,1.1-0.7,2.1-1,3.2l3.1,0.9C5.7,36.8,6.1,35.8,6.4,34.8z"/>
<path class="st0" d="M3.9,47l-3.3-0.2c-0.1,1.1-0.1,2.1-0.1,3.2v0.1L3.8,50C3.8,49,3.9,48,3.9,47z"/>
<path class="st0" d="M6.5,65.4l-3.1,1.1c0.4,1,0.8,2.1,1.2,3.1l3-1.3C7.2,67.3,6.8,66.4,6.5,65.4z"/>
<path class="st0" d="M16,18.9l-2.4-2.2c-0.8,0.8-1.5,1.7-2.2,2.5l2.5,2.1C14.6,20.5,15.3,19.7,16,18.9z"/>
<path class="st0" d="M43.1,4.8l-0.5-3.2c-1.1,0.2-2.2,0.3-3.3,0.6L40,5.3C41.1,5.1,42.1,4.9,43.1,4.8z"/>
<path class="st0" d="M49.3,4.3l0-3.3c-1.1,0-2.2,0-3.3,0.1l0.2,3.3C47.2,4.4,48.3,4.3,49.3,4.3z"/>
<path class="st0" d="M37,6.1l-0.9-3.1c-1.1,0.3-2.1,0.6-3.2,1L34.1,7C35,6.7,36,6.3,37,6.1z"/>
<path class="st0" d="M20.6,14.7l-2.1-2.5c-0.9,0.7-1.7,1.4-2.5,2.2l2.2,2.4C19,16,19.8,15.3,20.6,14.7z"/>
<path class="st0" d="M31.2,8.2l-1.3-3c-1,0.4-2,0.9-3,1.4l1.5,2.9C29.3,9,30.2,8.6,31.2,8.2z"/>
<path class="st0" d="M25.7,11l-1.7-2.8c-0.9,0.6-1.9,1.2-2.8,1.8l1.9,2.7C23.9,12.2,24.8,11.6,25.7,11z"/>
<path class="st0" d="M67.7,91.9l1.3,3c1-0.4,2-0.9,3-1.4l-1.5-2.9C69.6,91,68.7,91.5,67.7,91.9z"/>
<path class="st0" d="M82.9,81.2l2.4,2.2c0.8-0.8,1.5-1.7,2.2-2.5l-2.5-2.1C84.3,79.6,83.6,80.4,82.9,81.2z"/>
<path class="st0" d="M78.3,85.4l2.1,2.5c0.9-0.7,1.7-1.4,2.5-2.2l-2.2-2.4C79.9,84.1,79.1,84.8,78.3,85.4z"/>
<path class="st0" d="M86.8,76.3l2.7,1.9c0.6-0.9,1.3-1.8,1.8-2.8l-2.8-1.7C88,74.6,87.4,75.5,86.8,76.3z"/>
<path class="st0" d="M73.2,89l1.7,2.8c0.9-0.6,1.9-1.2,2.8-1.8l-1.9-2.7C75,87.9,74.1,88.5,73.2,89z"/>
<path class="st0" d="M61.8,94l0.9,3.1c1.1-0.3,2.1-0.6,3.2-1L64.8,93C63.8,93.4,62.8,93.7,61.8,94z"/>
<path class="st0" d="M95,53.1l3.3,0.2c0.1-1.1,0.1-2.2,0.1-3.3h-3.3C95.1,51,95.1,52.1,95,53.1z"/>
<path class="st0" d="M94.2,59.3l3.2,0.7c0.2-1.1,0.4-2.2,0.6-3.3l-3.2-0.4C94.6,57.2,94.4,58.3,94.2,59.3z"/>
<path class="st0" d="M92.5,65.3l3.1,1.1c0.4-1.1,0.7-2.1,1-3.2l-3.1-0.9C93.2,63.3,92.9,64.3,92.5,65.3z"/>
<path class="st0" d="M90,71l2.9,1.5c0.5-1,1-2,1.4-3l-3-1.3C91,69.1,90.5,70.1,90,71z"/>
<path class="st0" d="M9,71.1l-2.9,1.5c0.5,1,1.1,2,1.6,2.9l2.8-1.7C10,72.9,9.4,72,9,71.1z"/>
<path class="st0" d="M18.7,88c0.9,0.7,1.8,1.4,2.7,2l1.9-2.7c-0.8-0.6-1.7-1.2-2.5-1.9L18.7,88z"/>
<path class="st0" d="M30,94.9c1,0.4,2.1,0.9,3.1,1.2l1.1-3.1c-1-0.3-2-0.7-2.9-1.1L30,94.9z"/>
<path class="st0" d="M24.1,91.8c1,0.6,1.9,1.1,2.9,1.6l1.5-2.9c-0.9-0.5-1.8-1-2.7-1.5L24.1,91.8z"/>
<path class="st0" d="M13.8,83.4c0.8,0.8,1.6,1.6,2.4,2.4l2.2-2.4c-0.8-0.7-1.5-1.4-2.2-2.2L13.8,83.4z"/>
<path class="st0" d="M12.2,76.4l-2.7,1.9c0.6,0.9,1.3,1.8,2,2.7l2.5-2.1C13.4,78.1,12.8,77.2,12.2,76.4z"/>
<path class="st0" d="M55.7,95.2l0.4,3.2c1.1-0.2,2.2-0.3,3.3-0.6l-0.7-3.2C57.8,94.9,56.8,95.1,55.7,95.2z"/>
<path class="st0" d="M42.9,98.5c1.1,0.1,2.2,0.3,3.3,0.3l0.2-3.3c-1-0.1-2.1-0.2-3.1-0.3L42.9,98.5z"/>
<path class="st0" d="M49.5,95.7v3.3c1.1,0,2.2,0,3.3-0.1l-0.2-3.3C51.6,95.6,50.6,95.7,49.5,95.7z"/>
<path class="st0" d="M36.3,97.1c1.1,0.3,2.2,0.6,3.2,0.8l0.7-3.2c-1-0.2-2-0.5-3-0.7L36.3,97.1z"/>
<path class="st0" d="M62.9,14.8l-0.9,15.9c-0.1,2.3,0.7,4.6,2.4,6.2l3.2,3.2l5.8-15L79,31v7.2c0,1.3,0.5,2.5,1.4,3.5l2.8,2.8
	l3.5-5.8l0.8,0.8c1.2,1.3,3,1.8,4.8,1.3c1.7-0.4,3-1.8,3.5-3.5c0.4-1.7-0.1-3.5-1.3-4.8l-0.8-0.8l5.8-3.5l-2.8-2.8
	c-0.9-0.9-2.2-1.4-3.5-1.4H86l-5.8-5.8l15-5.8L92,9.4C90.3,7.7,88,6.8,85.7,7L69.8,7.9l-5.2-5.2c-1.9-1.8-5-1.8-6.9,0
	c-1.9,1.9-1.9,5,0,6.9L62.9,14.8z M66.2,34.3c-0.7-0.9-1.1-2.1-1.1-3.3l0.8-13l4.8,4.8L66.2,34.3z M82.7,39.2
	c-0.2-0.3-0.4-0.6-0.4-1v-3.9l2.1,2.1L82.7,39.2z M93.2,27.4c0.4,0,0.7,0.1,1,0.4l-2.9,1.7l-2.1-2.1L93.2,27.4z M85.9,10.2
	c1.2-0.1,2.4,0.3,3.3,1.1l-11.6,4.5L72.9,11L85.9,10.2z M59.9,5c0.6-0.6,1.7-0.6,2.3,0l30,30c0.6,0.6,0.6,1.7,0,2.3
	c-0.6,0.6-1.7,0.6-2.3,0l-30-30C59.3,6.6,59.3,5.6,59.9,5z"/>
</svg>
