<?xml version="1.0" encoding="utf-8"?>
<!-- Generator: Adobe Illustrator 28.2.0, SVG Export Plug-In . SVG Version: 6.00 Build 0)  -->
<svg version="1.1" id="Layer_1" xmlns="http://www.w3.org/2000/svg" xmlns:xlink="http://www.w3.org/1999/xlink" x="0px" y="0px"
	 viewBox="0 0 100 100" style="enable-background:new 0 0 100 100;" xml:space="preserve">
<style type="text/css">
	.st0{fill:#FFFFFF;}
</style>
<g>
	<g id="_20-Customer_Service">
		<path class="st0" d="M54.8,1.9C41.3,1.9,28.5,8.2,20.4,19c-0.5,0.7-0.4,1.7,0.3,2.2c0.7,0.5,1.7,0.4,2.2-0.3
			c13.4-17.6,38.5-21,56.1-7.6s21,38.5,7.6,56.1c-2.2,2.9-4.8,5.4-7.6,7.6c-0.7,0.5-0.8,1.5-0.3,2.2c0.5,0.7,1.5,0.8,2.2,0.3
			c0,0,0,0,0,0C100,65.2,103.7,38,89.2,19C81.1,8.2,68.3,1.9,54.8,1.9z M75.6,81.1v12.2c0,2.7-2.2,4.8-4.8,4.8
			C32.8,98,2,67.2,1.9,29.2c0-2.7,2.2-4.8,4.8-4.8h12.2c2,0,3.8,1.3,4.5,3.2l5.1,13.9c0.6,1.5,0.3,3.2-0.7,4.5l-6.2,8.2
			c-0.4,0.5-0.4,1.1-0.2,1.7c5.2,9.6,13.1,17.5,22.7,22.7c0.5,0.3,1.2,0.2,1.7-0.2h0l8.2-6.2c1.3-1,3-1.2,4.5-0.7l13.9,5.1
			C74.4,77.3,75.6,79.1,75.6,81.1z M72.4,81.1c0-0.7-0.4-1.3-1.1-1.5l-13.9-5.1c-0.5-0.2-1.1-0.1-1.5,0.2l-8.2,6.2
			c-1.5,1.1-3.5,1.3-5.1,0.4c-10.2-5.5-18.5-13.8-24-24c-0.9-1.6-0.7-3.6,0.4-5.1l6.2-8.2c0.3-0.4,0.4-1,0.2-1.5l-5.1-13.9
			c-0.2-0.6-0.8-1.1-1.5-1.1H6.7c-0.9,0-1.6,0.7-1.6,1.6c0,36.3,29.4,65.7,65.7,65.7c0.9,0,1.6-0.7,1.6-1.6V81.1z"/>
	</g>
	<g>
		<g>
			<path class="st0" d="M40,50l6.7-15.2l0.8,1.4h-9.3l1.4-1.5V39h-2.8v-5.4h12.7v2L43.2,50H40z"/>
			<path class="st0" d="M49.7,52.3l7.7-22h2.6l-7.7,22H49.7z"/>
			<path class="st0" d="M59.9,50v-2l6.5-6.2c0.5-0.5,0.9-1,1.2-1.4c0.3-0.4,0.4-0.8,0.5-1.1s0.1-0.7,0.1-0.9c0-0.7-0.3-1.3-0.8-1.7
				C67,36.3,66.2,36,65.2,36c-0.8,0-1.5,0.1-2.1,0.4c-0.6,0.3-1.2,0.7-1.7,1.3l-2.1-1.6c0.6-0.9,1.5-1.5,2.6-2
				c1.1-0.5,2.3-0.7,3.6-0.7c1.2,0,2.2,0.2,3.1,0.6c0.9,0.4,1.5,0.9,2,1.6c0.5,0.7,0.7,1.5,0.7,2.5c0,0.5-0.1,1.1-0.2,1.6
				c-0.1,0.5-0.4,1.1-0.8,1.7c-0.4,0.6-1,1.2-1.7,2L63,48.6l-0.6-1.1H72V50H59.9z"/>
			<path class="st0" d="M73.5,46.3v-2.1l8.1-10.5h3.2l-7.9,10.5l-1.5-0.5h12.9v2.5H73.5z M82.5,50v-3.7l0.1-2.5v-3.3h2.9V50H82.5z"
				/>
		</g>
	</g>
</g>
</svg>
